<?xml version="1.0" standalone="no"?>
<!DOCTYPE svg PUBLIC "-//W3C//DTD SVG 1.1//EN" "http://www.w3.org/Graphics/SVG/1.1/DTD/svg11.dtd" >
<svg xmlns="http://www.w3.org/2000/svg">
<metadata>
This is a custom SVG webfont generated by Font Squirrel.
Copyright   : Copyright  1987 1991 1993 1994 1998 2002 Adobe Systems Incorporated  All Rights Reserved  1981 1998 2002 Heidelberger Druckmaschinen AG All rights reserved
Designer    : Adrian Frutiger
Foundry URL : httpwwwadobecomtype
</metadata>
<defs>
<font id="UniversLTStd45Light" horiz-adv-x="1138" >
<font-face units-per-em="2048" ascent="1483" descent="-565" />
<missing-glyph horiz-adv-x="569" />
<glyph unicode=" "  horiz-adv-x="569" />
<glyph unicode="&#x09;" horiz-adv-x="569" />
<glyph unicode="&#xa0;" horiz-adv-x="569" />
<glyph unicode="!" horiz-adv-x="796" d="M315 1479h168l-26 -1129h-115zM317 0v176h164v-176h-164z" />
<glyph unicode="&#x22;" horiz-adv-x="569" d="M119 1016v463h106v-463h-106zM344 1016v463h107v-463h-107z" />
<glyph unicode="#" d="M59 463v123h242l41 280h-227v123h243l66 428h121l-64 -428h277l61 428h121l-63 -428h202v-123h-219l-41 -280h207v-123h-225l-64 -463h-121l64 463h-279l-69 -463h-119l70 463h-224zM418 586h280l41 280h-276z" />
<glyph unicode="$" d="M86 360h143q-4 -68 17.5 -116.5t61.5 -81.5t93.5 -49.5t112.5 -20.5v563q-41 16 -108.5 39t-132 65t-112.5 111.5t-48 184.5q0 82 35.5 153.5t93 124.5t129 84t143.5 31v98h102v-98q76 0 148 -23.5t129 -68.5t94 -112.5t43 -153.5h-143q0 66 -25.5 110.5t-64.5 72t-87 41 t-94 15.5v-563q80 -25 159 -53.5t140.5 -72.5t100.5 -111.5t39 -172.5q0 -100 -38 -172.5t-100.5 -121t-141.5 -71t-159 -22.5v-108h-102v108q-80 2 -159 25.5t-140 72t-97 121t-32 172.5zM256 1057q0 -59 22.5 -102.5t59.5 -73t83 -50t93 -34.5v528q-49 0 -96 -19.5 t-83 -54t-57.5 -84t-21.5 -110.5zM616 92q53 4 105.5 22.5t94.5 52.5t68.5 82t26.5 111q0 68 -27.5 112t-70.5 73.5t-95 49t-102 38.5v-541z" />
<glyph unicode="%" horiz-adv-x="2048" d="M242 1061q0 76 21.5 145.5t63.5 123.5t102 86t138 32t138.5 -32t102.5 -86t63.5 -123.5t21.5 -145.5t-21.5 -145.5t-63.5 -124t-102.5 -86t-138.5 -31.5t-138 31.5t-102 86t-63.5 124t-21.5 145.5zM354 1061q0 -49 11.5 -101.5t36 -95.5t65.5 -70.5t100 -27.5t100.5 27.5 t66 70.5t35.5 95.5t11 101.5t-11 101t-35.5 95t-65.5 71t-101 28q-59 0 -100 -28t-65.5 -71t-36 -95t-11.5 -101zM539 0l798 1448h119l-799 -1448h-118zM1155 356q0 76 21.5 145.5t63.5 124t102.5 86t138.5 31.5t138 -31.5t102 -86t63.5 -124t21.5 -145.5t-21.5 -145.5 t-63.5 -123.5t-102 -86t-138 -32t-138.5 32t-102.5 86t-63.5 123.5t-21.5 145.5zM1268 356q0 -49 11 -101t35.5 -95t65.5 -71t101 -28q59 0 100 28t65.5 71t36 95t11.5 101t-11.5 101.5t-36 95.5t-65.5 70.5t-100 27.5t-100.5 -27.5t-66 -70.5t-35.5 -95.5t-11 -101.5z" />
<glyph unicode="&#x26;" horiz-adv-x="1478" d="M111 406q0 84 32.5 150.5t85 121.5t117 100t125.5 86q2 4 4 5t4 3q-35 39 -68.5 81t-62.5 87t-46 95.5t-17 105.5q0 68 27.5 119t73.5 84t103.5 49t118.5 16q59 0 118.5 -15t107 -47t76 -82t28.5 -118q0 -66 -24.5 -121t-62.5 -102t-86 -88t-97 -78l432 -461 q25 57 44 127t31.5 142.5t16.5 144.5t2 133h143q-8 -80 -16 -164t-23.5 -164.5t-40 -159.5t-67.5 -151l280 -305h-190l-176 197q-92 -111 -200.5 -169.5t-252.5 -58.5q-113 0 -211 30t-171.5 87t-115.5 137.5t-42 182.5zM254 434q0 -80 31.5 -143.5t86 -107.5t124 -67.5 t143.5 -23.5q125 0 214 51.5t173 139.5l-463 497q-37 -25 -90 -63.5t-101 -84.5t-83 -97.5t-35 -100.5zM428 1239q0 -41 15.5 -81t39 -79t52 -73.5t53.5 -61.5q31 31 67.5 62.5t67.5 67.5t51.5 76t20.5 89q0 76 -56.5 111.5t-124.5 35.5q-37 0 -69.5 -8t-59 -25.5t-42 -46 t-15.5 -67.5z" />
<glyph unicode="'" horiz-adv-x="569" d="M231 1016v463h107v-463h-107z" />
<glyph unicode="(" horiz-adv-x="569" d="M156 641q0 109 19.5 215.5t51 212t71.5 207.5t79 203h102q-82 -209 -131 -424t-49 -414q0 -104 15.5 -215t40 -218.5t57 -210.5t67.5 -194h-104q-37 100 -76 203t-70.5 207t-52 210.5t-20.5 217.5z" />
<glyph unicode=")" horiz-adv-x="569" d="M90 -197q35 90 67.5 193.5t57.5 211t40 218.5t15 215q0 199 -49 414t-131 424h103q39 -100 78.5 -202.5t71.5 -208t51.5 -212t19.5 -215.5q0 -111 -20.5 -217.5t-52.5 -210.5t-71 -206.5t-75 -203.5h-105z" />
<glyph unicode="*" d="M213 1067v119l297 -25l-186 258l108 60l139 -279l138 279l104 -58l-180 -260l293 25v-119l-291 23l176 -265l-106 -55l-134 283l-139 -287l-102 59l178 262z" />
<glyph unicode="+" horiz-adv-x="1351" d="M164 453v122h450v453h123v-453h451v-122h-451v-453h-123v453h-450z" />
<glyph unicode="," horiz-adv-x="569" d="M121 -254l88 420h166l-148 -420h-106z" />
<glyph unicode="-" horiz-adv-x="569" d="M27 485v123h516v-123h-516z" />
<glyph unicode="." horiz-adv-x="569" d="M203 0v176h164v-176h-164z" />
<glyph unicode="/" horiz-adv-x="569" d="M-47 -197l530 1676h133l-534 -1676h-129z" />
<glyph unicode="0" d="M98 709q0 135 19.5 267t72 237.5t143.5 170t236 64.5t236.5 -64.5t143.5 -170t71.5 -237.5t19.5 -267t-19.5 -267.5t-71.5 -238t-143 -170t-237 -64.5q-145 0 -236 64.5t-143.5 170t-72 238t-19.5 267.5zM242 709q0 -80 9 -185.5t42 -202t98.5 -163t177.5 -66.5 q113 0 178.5 66.5t98.5 163t42 202t9 185.5t-9 185t-42 201.5t-98.5 163t-178.5 66.5t-178 -66.5t-98 -163t-42 -201.5t-9 -185z" />
<glyph unicode="1" d="M238 1061v133q92 37 174 95.5t151 127.5h127v-1417h-133v1274q-72 -68 -152.5 -120t-166.5 -93z" />
<glyph unicode="2" d="M102 0v139q45 41 118 108.5t154 150.5t162.5 175.5t147.5 182.5t106.5 172t40.5 145q0 61 -22.5 108.5t-61 79t-91 48t-109.5 16.5q-63 0 -116.5 -20.5t-91.5 -58.5t-58.5 -90t-20.5 -114h-143q0 94 32.5 169t91 127.5t138.5 81t172 28.5q86 0 163 -22.5t135 -68.5 t92 -114.5t34 -161.5q0 -84 -38 -172t-98.5 -177t-138 -175t-156.5 -165t-153 -147.5t-129 -121.5h731v-123h-891z" />
<glyph unicode="3" d="M66 375h143q0 -66 27.5 -118t72.5 -89t102.5 -56.5t118.5 -19.5q70 0 133.5 18.5t109.5 56.5t73.5 95t27.5 133q0 86 -36.5 143.5t-96 91.5t-133 44t-147.5 0v129q68 -8 137.5 3t125.5 43t92 86t36 134q0 61 -25.5 109.5t-68.5 80t-100.5 49t-118.5 17.5 q-135 0 -215 -67.5t-95 -190.5h-143q0 90 37 160.5t97.5 120t138 75t161.5 25.5q90 0 175 -21.5t151.5 -68.5t107.5 -121t41 -176q0 -66 -22.5 -119t-62.5 -93t-92 -67.5t-111 -40.5v-4q68 -14 125 -44.5t98 -77t64.5 -105.5t23.5 -131q0 -100 -42 -176t-111.5 -128 t-156.5 -79t-176 -27q-94 0 -177 25.5t-146.5 76t-102 126.5t-40.5 178z" />
<glyph unicode="4" d="M45 330v129l623 958h176v-977h227v-110h-227v-330h-133v330h-666zM158 440h553v844h-4z" />
<glyph unicode="5" d="M127 348h143q2 -63 28 -111.5t65.5 -80t93 -48t114.5 -16.5q82 0 143.5 30t102.5 81t60.5 118.5t19.5 145.5q0 154 -79 249t-238 95q-102 0 -183.5 -57.5t-103.5 -157.5h-137l32 821h781v-123h-654l-22 -506l4 -4q59 70 137 110t174 40q100 0 180 -38t136.5 -103.5 t86 -151.5t29.5 -180q0 -102 -31.5 -191.5t-90 -156t-143.5 -105.5t-189 -39q-90 0 -172 21.5t-144.5 67.5t-101.5 118t-41 172z" />
<glyph unicode="6" d="M92 637q0 90 6 185.5t25.5 185.5t54.5 169.5t92.5 140t140.5 95.5t197 35q86 0 162 -22.5t133.5 -66.5t90 -112.5t34.5 -161.5h-143q-2 55 -24.5 99.5t-58.5 76t-84 48t-104 16.5q-127 0 -202.5 -62.5t-114.5 -156.5t-50 -206t-11 -212h4q47 117 147 174.5t225 57.5 q104 0 185.5 -35t136.5 -98.5t84 -149.5t29 -186q0 -102 -31 -189.5t-88.5 -153t-140 -102.5t-187.5 -37q-147 0 -245.5 56.5t-157 149.5t-82 214t-23.5 248zM260 432q0 -68 23.5 -129t66.5 -108.5t101.5 -75t128.5 -27.5q78 0 138 26.5t101 74t62.5 111t21.5 138.5 q0 70 -16.5 135.5t-52 116.5t-92 82t-136.5 31q-84 0 -148.5 -28.5t-108.5 -80t-66.5 -119t-22.5 -147.5z" />
<glyph unicode="7" d="M104 1294v123h904v-119l-551 -1298h-156l567 1294h-764z" />
<glyph unicode="8" d="M88 385q0 68 21.5 126t62.5 103t98.5 76t126.5 45v4q-61 6 -114.5 35t-92 73t-60 100.5t-21.5 119.5q0 98 39.5 170t105 119t147.5 69.5t168 22.5t168 -22.5t147.5 -69.5t105.5 -119t40 -170q0 -66 -21.5 -119t-60.5 -95t-90 -70.5t-113 -43.5v-2q141 -37 223.5 -124 t82.5 -228q0 -109 -42 -186.5t-110 -129t-155 -76t-175 -24.5q-90 0 -176 24.5t-153.5 76t-109.5 129t-42 186.5zM231 385q0 -76 28 -131t75 -91t108.5 -53.5t126.5 -17.5q66 0 127.5 17.5t108.5 53.5t74.5 91t27.5 131t-27.5 131t-74.5 91t-108.5 53.5t-127.5 17.5 t-127 -17.5t-108 -53.5t-75 -91t-28 -131zM242 1067q0 -133 93 -199.5t234 -66.5t234.5 66.5t93.5 199.5q0 72 -28.5 123t-76 83t-105.5 47t-118 15q-59 0 -117.5 -15t-105.5 -47t-75.5 -83t-28.5 -123z" />
<glyph unicode="9" d="M92 985q0 100 32 185t91 146.5t143 96.5t187 35q154 0 252 -60.5t154.5 -159t77 -224t20.5 -256.5q0 -143 -20.5 -282.5t-79 -250.5t-164 -178.5t-275.5 -67.5q-190 0 -294.5 104.5t-119.5 274.5h144q2 -70 25.5 -119t64.5 -79.5t96 -44t121 -13.5q80 0 138 35t98 91 t63.5 128t37 146.5t17.5 145.5t4 124h-4q-53 -104 -152.5 -160.5t-222.5 -56.5q-96 0 -176 32.5t-137 92t-89 139.5t-32 176zM236 975q0 -141 80.5 -229.5t222.5 -88.5q74 0 136 25t108 70t72 106.5t26 134.5q0 74 -25 134.5t-70 104.5t-105 68.5t-134 24.5 q-80 0 -138.5 -26.5t-96.5 -74.5t-57 -111.5t-19 -137.5z" />
<glyph unicode=":" horiz-adv-x="569" d="M203 0v176h164v-176h-164zM203 852v176h164v-176h-164z" />
<glyph unicode=";" horiz-adv-x="569" d="M160 -254l88 420h166l-148 -420h-106zM219 852v176h164v-176h-164z" />
<glyph unicode="&#x3c;" horiz-adv-x="1351" d="M164 461v108l1024 457v-131l-862 -381l862 -403v-131z" />
<glyph unicode="=" horiz-adv-x="1351" d="M164 254v123h1024v-123h-1024zM164 651v123h1024v-123h-1024z" />
<glyph unicode="&#x3e;" horiz-adv-x="1351" d="M164 2v131l862 381l-862 404v131l1024 -482v-108z" />
<glyph unicode="?" horiz-adv-x="1024" d="M213 1356v125q55 16 111.5 22t113.5 6q86 0 165 -22.5t138.5 -67.5t94 -113.5t34.5 -162.5q0 -66 -16 -116t-46 -94t-68 -84t-81 -81q-55 -57 -91 -91t-57.5 -60.5t-28.5 -54t-3 -73.5v-143h-123v221q2 49 31 92t71 85t91 85t91 90.5t69.5 100.5t27.5 119q0 72 -28.5 120 t-74.5 76.5t-105.5 39.5t-122.5 11q-49 0 -97.5 -8t-95.5 -22zM336 0v176h164v-176h-164z" />
<glyph unicode="@" horiz-adv-x="1638" d="M82 745q0 158 60.5 297.5t165 243t242.5 163.5t294 60q145 0 273 -48t223.5 -133t149.5 -202.5t54 -257.5q0 -121 -43 -228.5t-111.5 -189t-152.5 -129t-166 -47.5q-53 0 -105.5 26t-68.5 81q-47 -47 -112.5 -74.5t-131.5 -27.5t-118 23.5t-87.5 65.5t-55 97t-19.5 119 q0 102 36.5 210.5t102.5 198.5t159 147.5t206 57.5q72 0 134 -34t93 -99l31 94h135l-205 -614q-12 -35 -19.5 -63.5t-5.5 -49t15.5 -33t44.5 -12.5q63 0 120.5 46t102.5 117t71.5 157t26.5 167q0 123 -46 222.5t-125 168t-183 105.5t-219 37q-141 0 -259 -54.5t-204 -146.5 t-133 -215t-47 -260t49 -258t136 -210t206 -140t256 -51q158 0 302 71.5t237 204.5h118q-47 -88 -118.5 -158.5t-157.5 -120t-183.5 -75t-197.5 -25.5q-164 0 -304 61.5t-243.5 167t-163 246.5t-59.5 301zM526 594q0 -74 40 -133.5t118 -59.5q70 0 131.5 57.5t106.5 139.5 t71.5 173t26.5 159q0 59 -39 102t-100 43q-82 0 -147.5 -49t-112 -122t-71 -156.5t-24.5 -153.5z" />
<glyph unicode="A" horiz-adv-x="1366" d="M18 0l586 1479h156l590 -1479h-146l-157 399h-736l-155 -399h-138zM354 522h645l-319 834z" />
<glyph unicode="B" horiz-adv-x="1366" d="M205 0v1479l530 -2q82 0 157 -25t131 -72t90 -115.5t34 -156.5q0 -61 -21.5 -115.5t-58.5 -98.5t-87 -75t-108 -45v-4q152 -25 244 -120t92 -255q0 -74 -23.5 -144.5t-75.5 -125.5t-136 -90t-205 -35h-563zM338 123h326h24q79 0 145 11q75 13 127 47t78.5 90.5 t26.5 142.5q0 94 -36 151.5t-100.5 88t-152.5 41t-192 10.5h-246v-582zM338 827h321q63 0 126 13.5t111 45.5t78 83t30 127q0 80 -31 131t-80 78.5t-111.5 39t-128.5 11.5h-315v-529z" />
<glyph unicode="C" horiz-adv-x="1366" d="M125 739q0 152 37 291t114.5 245.5t197.5 170t288 63.5q90 0 175 -21.5t152.5 -67.5t111.5 -116.5t52 -170.5h-143q-10 68 -42 115.5t-79 78.5t-105.5 45t-121.5 14q-141 0 -236.5 -58t-153 -151.5t-81 -209t-23.5 -228.5q0 -115 23.5 -229.5t81 -207.5t153 -151.5 t236.5 -58.5q61 0 120.5 15.5t108.5 48t85 83t50 119.5h144q-16 -92 -64.5 -164.5t-117 -123t-153.5 -76t-173 -25.5q-168 0 -289 62.5t-197.5 169t-113.5 245.5t-37 293z" />
<glyph unicode="D" horiz-adv-x="1478" d="M186 0v1479h400q367 0 564.5 -185.5t197.5 -554.5t-198 -554t-564 -185h-400zM319 123h299q156 0 267.5 44t182.5 125t103.5 194.5t32.5 252.5q0 164 -46 283t-134 194.5t-213 109.5q-111 30 -249 30h-34h-209v-1233z" />
<glyph unicode="E" horiz-adv-x="1251" d="M209 0v1479h878v-123h-745v-531h717v-123h-717v-579h776v-123h-909z" />
<glyph unicode="F" d="M195 0v1479h835v-123h-702v-522h678v-123h-678v-711h-133z" />
<glyph unicode="G" horiz-adv-x="1478" d="M131 739q0 143 38 281.5t117 247t197.5 175t278.5 66.5q92 0 182 -24.5t162 -74.5t120 -124t56 -172h-152q-10 70 -43.5 122t-84 85t-113 49t-127.5 16q-133 0 -225.5 -58t-150.5 -150.5t-85 -208t-27 -230.5q0 -141 31 -260t98.5 -205t173 -134t254.5 -48q84 0 167 19.5 t161 42.5v477h-371v123h504v-693q-135 -53 -261 -72.5t-269 -19.5q-152 0 -269.5 56.5t-197.5 158t-122 243.5t-42 312z" />
<glyph unicode="H" horiz-adv-x="1478" d="M203 0v1479h133v-650h807v650h133v-1479h-133v707h-807v-707h-133z" />
<glyph unicode="I" horiz-adv-x="569" d="M219 0v1485h133v-1485h-133z" />
<glyph unicode="J" horiz-adv-x="1024" d="M27 365h143q10 -121 85 -197t196 -76q70 0 120 33t80.5 85t45 117.5t14.5 133.5v1018h133v-998q0 -41 -2 -87t-12.5 -93t-31 -95t-57.5 -91q-63 -78 -150 -112t-183 -34q-90 0 -157 32t-113 85t-73.5 126t-37.5 153z" />
<glyph unicode="K" horiz-adv-x="1251" d="M217 0v1479h131l2 -652l662 652h168l-682 -668l743 -811h-182l-709 772l-2 -772h-131z" />
<glyph unicode="L" d="M205 0v1479h133v-1356h743v-123h-876z" />
<glyph unicode="M" horiz-adv-x="1933" d="M199 0v1479h213l555 -1289l567 1289h203v-1479h-133v1366h-5l-565 -1366h-133l-565 1360h-4v-1360h-133z" />
<glyph unicode="N" horiz-adv-x="1478" d="M188 0v1479h152l815 -1301h4v1301h133v-1479h-168l-798 1278h-4v-1278h-134z" />
<glyph unicode="O" horiz-adv-x="1593" d="M137 739q0 172 43 314.5t127 244t207 156.5t283 55t282.5 -55t206.5 -156.5t127 -244t43 -314.5t-43 -314t-127 -243.5t-207 -157t-282 -55.5q-160 0 -283 55.5t-207 157t-127 243.5t-43 314zM281 739q0 -121 28.5 -237.5t91 -207.5t159.5 -146.5t237 -55.5 q137 0 235 55.5t160.5 146.5t91.5 207.5t29 237.5t-29 238t-91.5 208t-160.5 146t-235 55q-139 0 -236.5 -55t-160 -146t-91 -208t-28.5 -238z" />
<glyph unicode="P" horiz-adv-x="1251" d="M205 0v1479h370h26q94 0 189 -14q108 -15 194.5 -61t141 -129t54.5 -214q0 -133 -54.5 -215t-141.5 -128t-194 -62q-95 -14 -189 -13h-26h-237v-643h-133zM338 766h324q74 0 142 13.5t119.5 47t82 91t30.5 143.5t-30.5 143.5t-82 91t-120 47t-141.5 13.5h-324v-590z" />
<glyph unicode="Q" horiz-adv-x="1593" d="M137 739q0 172 43 314.5t127 244t207 156.5t283 55t282.5 -55t206.5 -156.5t127 -244t43 -314.5q0 -90 -16.5 -179t-49 -171t-84 -152.5t-120.5 -123.5l4 -4q72 11 146 11h13h32q65 0 130 3v-123h-301q-25 0 -57.5 3t-67.5 4q-17 1 -34.5 1t-35.5 -1q-36 -1 -67 -9 q-39 -12 -79 -20.5t-72 -8.5q-160 0 -283 55.5t-207 157t-127 243.5t-43 314zM281 739q0 -121 28.5 -237.5t91 -207.5t159.5 -146.5t237 -55.5q137 0 235 55.5t160.5 146.5t91.5 207.5t29 237.5t-29 238t-91.5 208t-160.5 146t-235 55q-139 0 -236.5 -55t-160 -146t-91 -208 t-28.5 -238z" />
<glyph unicode="R" horiz-adv-x="1366" d="M211 0v1479h483q96 0 180 -13.5t168 -64.5q78 -47 115 -125t37 -184q0 -121 -78 -203t-207 -115v-4q70 -12 115 -41t72.5 -72t41 -98t19.5 -119q10 -90 15.5 -157.5t11.5 -118.5t17 -91t34 -73h-154q-27 74 -36 151.5t-15 155.5q-12 127 -25.5 205t-45 121t-90 57.5 t-158.5 14.5h-367v-705h-133zM344 827h285q70 0 144.5 6.5t136 32t101.5 78.5t40 148q0 106 -44 160.5t-106.5 78t-133.5 24.5t-124 1h-299v-529z" />
<glyph unicode="S" horiz-adv-x="1251" d="M119 385h143q2 -86 32 -142.5t81 -90t117.5 -47t140.5 -13.5q61 0 124.5 18.5t115 53.5t84 88t32.5 125q0 55 -18.5 96t-50 71.5t-73.5 52t-89 38.5q-90 31 -195.5 63.5t-197 84t-151.5 129t-60 198.5q0 96 41 171t107.5 125t150.5 76.5t172 26.5q74 0 152.5 -15t148 -54 t119 -107.5t61.5 -175.5h-143q-2 68 -31 113t-75 70.5t-102.5 35.5t-113.5 10t-118.5 -15t-112 -46t-82 -80t-31.5 -117q0 -104 61.5 -164.5t154.5 -100.5t201.5 -70.5t202 -77.5t155 -123t61.5 -203q0 -121 -48.5 -202t-128 -129t-183 -68.5t-214.5 -20.5q-88 0 -167 31 t-139 86t-96 131t-38 168z" />
<glyph unicode="T" d="M29 1356v123h1081v-123h-469l-2 -1356h-131l-2 1356h-477z" />
<glyph unicode="U" horiz-adv-x="1478" d="M199 520v959h133v-957q8 -203 115.5 -316.5t291.5 -113.5t292 113.5t116 316.5v957h133v-959q-2 -119 -36 -220t-101.5 -175t-168 -115t-235.5 -41t-235.5 41t-168 115t-101 175t-35.5 220z" />
<glyph unicode="V" horiz-adv-x="1251" d="M12 1479h146l475 -1346h4l469 1346h133l-534 -1479h-152z" />
<glyph unicode="W" horiz-adv-x="2048" d="M20 1479h142l344 -1346h4l432 1346h162l450 -1346h5l342 1346h129l-390 -1479h-182l-436 1341h-4l-424 -1341h-188z" />
<glyph unicode="X" horiz-adv-x="1251" d="M16 0l527 762l-500 717h174l418 -623l434 623h150l-512 -717l528 -762h-170l-449 662l-448 -662h-152z" />
<glyph unicode="Y" horiz-adv-x="1251" d="M16 1479h170l453 -715l453 715h143l-541 -836v-643h-133v639z" />
<glyph unicode="Z" d="M80 0v123l821 1233h-821v123h979v-123l-823 -1233h823v-123h-979z" />
<glyph unicode="[" horiz-adv-x="569" d="M174 -197v1676h281v-103h-148v-1470h148v-103h-281z" />
<glyph unicode="\" horiz-adv-x="569" d="M-90 1479h133l619 -1479h-134z" />
<glyph unicode="]" horiz-adv-x="569" d="M115 -94h147v1470h-147v103h280v-1676h-280v103z" />
<glyph unicode="^" horiz-adv-x="1351" d="M152 489l471 928h106l473 -928h-117l-411 803l-404 -803h-118z" />
<glyph unicode="_" horiz-adv-x="1024" d="M0 -139h1024v-115h-1024v115z" />
<glyph unicode="`" horiz-adv-x="569" d="M41 1448h164l186 -293h-90z" />
<glyph unicode="a" horiz-adv-x="1024" d="M74 287q0 104 57 181t150 116q51 23 109.5 32t118.5 11q40 1 80 1h41h24q48 0 91 3v94q-10 127 -71.5 174t-171.5 47q-49 0 -92 -8t-77 -28.5t-55.5 -55.5t-27.5 -86h-131q12 80 46 135t84 90t115.5 50.5t139.5 15.5q170 0 268 -82t96 -258v-488q-1 -20 0 -39 q0 -40 2 -79q4 -59 9 -113h-127l-4 152h-5l-6 -15q-16 -33 -49 -62.5t-76 -53t-94 -38t-102 -14.5q-72 0 -134.5 21.5t-108.5 62.5t-72.5 99.5t-26.5 134.5zM207 287q0 -104 68.5 -154.5t162.5 -50.5q100 0 163 38t96.5 99.5t42.5 139.5q6 55 7 110q0 24 -2 49 q-66 -2 -157.5 -2t-176.5 -18.5t-144.5 -66.5t-59.5 -144z" />
<glyph unicode="b" d="M133 0q4 53 7 112.5t3 118.5v1248h123v-602l4 -5q53 90 151.5 138.5t201.5 48.5q115 0 194.5 -47t130.5 -124t73.5 -173.5t22.5 -196.5q0 -96 -22.5 -194.5t-72.5 -177t-129 -128t-191 -49.5q-113 0 -204 49.5t-155 141.5l-4 -8l-6 -152h-127zM266 535q0 -88 17.5 -170 t57.5 -144.5t107.5 -100.5t167.5 -38q88 0 145.5 43t90.5 108.5t46 144.5t13 150q0 74 -16 149t-53 134t-96.5 97t-147.5 38q-90 0 -152.5 -34.5t-102.5 -92t-58.5 -132t-18.5 -152.5z" />
<glyph unicode="c" horiz-adv-x="1024" d="M94 514q0 104 29 202.5t86 174.5t143 122t201 46q80 0 149.5 -23.5t123 -67.5t85 -108.5t35.5 -146.5h-133q-8 119 -79.5 176t-201.5 57q-72 0 -128 -34.5t-95 -93t-60.5 -136.5t-21.5 -166t21.5 -167t60.5 -138t95.5 -94t127.5 -35q121 0 197 66.5t84 173.5h133 q-49 -352 -401 -353q-115 0 -200 46t-140 122t-83 174.5t-28 202.5z" />
<glyph unicode="d" d="M94 518q0 100 22.5 196.5t74 173.5t131 124t194.5 47q102 0 200.5 -48t151.5 -139l4 5v602h123v-1248q0 -59 3 -118.5t8 -112.5h-127l-7 152l-4 8q-63 -92 -153 -141.5t-199 -49.5q-115 0 -194.5 49.5t-131 128t-74 177t-22.5 194.5zM227 532q0 -72 12.5 -150.5t45 -145 t89 -110.5t144.5 -44q100 0 168 39t108 102.5t57 145.5t17 170q0 78 -18.5 151.5t-58 130t-102 91t-152.5 34.5q-88 0 -147.5 -37t-95.5 -96t-51.5 -133t-15.5 -148z" />
<glyph unicode="e" d="M102 514q0 104 29 202.5t86 174.5t143 122t201 46q129 0 218 -44t145.5 -122t81 -182.5t24.5 -225.5h-794q2 -82 22.5 -155.5t63.5 -129t109.5 -87t160.5 -31.5q55 0 103 18.5t88 51t67 77.5t39 99h129q-47 -186 -163 -272.5t-302 -86.5q-115 0 -200 46t-140 122 t-83 174.5t-28 202.5zM240 598h657q-6 74 -28.5 138.5t-63.5 110.5t-101.5 72.5t-140.5 26.5q-76 0 -133 -28.5t-97 -77.5t-63.5 -111.5t-29.5 -130.5z" />
<glyph unicode="f" horiz-adv-x="681" d="M45 915v113h207v219q0 133 57.5 194.5t190.5 61.5q29 0 58.5 -8t57.5 -14v-99q-18 4 -37.5 6.5t-37.5 2.5q-63 0 -98 -15.5t-50.5 -45.5t-17.5 -73q-1 -22 -1 -46t1 -52v-131h233v-113h-233v-915h-123v915h-207z" />
<glyph unicode="g" d="M92 522q0 104 24.5 201.5t77 171.5t136.5 119t200 45q113 0 195 -50.5t143 -140.5l4 9l7 151h127q-4 -53 -7.5 -112.5t-3.5 -118.5v-617q0 -78 -2 -154.5t-21.5 -145t-63.5 -128t-130 -98.5q-61 -29 -111.5 -38t-121.5 -9q-70 0 -142.5 13t-131 45t-96.5 85t-38 133h133 q6 -47 34 -77.5t69 -50t90 -28t98 -8.5q59 0 114.5 20.5t98.5 57.5t69.5 89.5t28.5 117.5v193h-4q-45 -92 -139 -142.5t-194 -50.5q-117 0 -200 41t-137.5 111.5t-80 165t-25.5 200.5zM225 532q0 -72 18.5 -145.5t57.5 -132.5t100.5 -98t145.5 -39q88 0 150.5 36.5t101.5 97 t56 135.5t17 151q0 74 -20.5 146.5t-61 130.5t-103 95t-144.5 37q-84 0 -144.5 -38t-98.5 -98t-56.5 -134t-18.5 -144z" />
<glyph unicode="h" d="M164 0v1479h123v-607h4q53 96 137 141.5t184 45.5q84 0 143.5 -22.5t99.5 -58.5t64.5 -82t37 -92t15.5 -89t3 -72v-643h-123v664q0 135 -71.5 208.5t-198.5 73.5q-76 0 -131.5 -29.5t-92 -79t-54 -112.5t-17.5 -133v-592h-123z" />
<glyph unicode="i" horiz-adv-x="454" d="M156 1325v154h143v-154h-143zM166 0v1028h123v-1028h-123z" />
<glyph unicode="j" horiz-adv-x="454" d="M6 -281q68 0 101.5 11.5t46 45.5t12.5 96v163v993h123v-1073q0 -98 -5 -167t-33 -109.5t-84 -58.5q-46 -14 -123 -14q-18 0 -38 1v112zM156 1325v154h143v-154h-143z" />
<glyph unicode="k" horiz-adv-x="1024" d="M176 0v1479h123v-871l498 420h157l-520 -444l561 -584h-155l-541 557v-557h-123z" />
<glyph unicode="l" horiz-adv-x="454" d="M166 0v1479h123v-1479h-123z" />
<glyph unicode="m" horiz-adv-x="1820" d="M152 1028h127l6 -151l4 -5q53 96 137 141.5t184 45.5q123 0 211 -61.5t123 -163.5q29 45 64.5 86t81 71.5t97.5 49t111 18.5q84 0 143.5 -22.5t99.5 -58.5t64.5 -82t37 -92t15.5 -89t3 -72v-643h-123v664q0 135 -71.5 208.5t-198.5 73.5q-76 0 -131.5 -29.5t-92 -79 t-54 -112.5t-17.5 -133v-592h-123v664q0 135 -71.5 208.5t-198.5 73.5q-76 0 -131.5 -29.5t-92.5 -79t-54 -112.5t-17 -133v-592h-123v797q0 59 -3 118.5t-7 112.5z" />
<glyph unicode="n" d="M154 1028h127l6 -151l4 -5q53 96 137 141.5t184 45.5q84 0 143.5 -22.5t99.5 -58.5t64.5 -82t37 -92t15.5 -89t3 -72v-643h-123v664q0 135 -71.5 208.5t-198.5 73.5q-76 0 -131.5 -29.5t-92 -79t-54 -112.5t-17.5 -133v-592h-123v797q0 59 -3 118.5t-7 112.5z" />
<glyph unicode="o" d="M90 514q0 100 28.5 198.5t88 175.5t149.5 124t213 47t213 -47t149.5 -124t88.5 -175.5t29 -198.5q0 -102 -29 -199.5t-88.5 -174.5t-149.5 -124t-213 -47t-213 47t-149.5 124t-88 174.5t-28.5 199.5zM223 514q0 -72 19.5 -148.5t60.5 -139t107.5 -103.5t158.5 -41t159 41 t108 103.5t60 139t19 148.5t-19 148.5t-60 139t-107.5 103.5t-159.5 41q-92 0 -158.5 -41t-107.5 -103.5t-60.5 -139t-19.5 -148.5z" />
<glyph unicode="p" d="M133 1028h127l6 -151l4 -5q53 90 151.5 138.5t201.5 48.5q115 0 194.5 -47t130.5 -124t73.5 -173.5t22.5 -196.5q0 -96 -22.5 -194.5t-72.5 -177t-129 -128t-191 -49.5q-113 0 -204 49.5t-155 141.5h-4v-553h-123v1190q1 20 1 39q0 40 -3 79q-4 60 -8 113zM266 539 q0 -88 17.5 -170t57.5 -145.5t107.5 -102.5t167.5 -39q88 0 145.5 44t90.5 110.5t46 145.5t13 150q0 74 -16 148t-53 133t-96.5 96t-147.5 37q-90 0 -152.5 -34.5t-102.5 -91t-58.5 -130t-18.5 -151.5z" />
<glyph unicode="q" d="M94 518q0 100 22.5 196.5t74 173.5t131 124t194.5 47q102 0 200.5 -47t151.5 -135v-7h4v7l7 151h127q-4 -53 -7.5 -112.5t-3.5 -118.5v-1188h-123v551h-4q-63 -92 -154 -141.5t-204 -49.5t-191.5 49.5t-129 128t-73 177t-22.5 194.5zM227 532q0 -72 13.5 -150.5t46 -145 t90 -110.5t145.5 -44q100 0 168 39t108 102.5t57 145.5t17 170q0 78 -18 151.5t-58 130t-102.5 91t-152.5 34.5q-88 0 -147.5 -37t-96.5 -96t-53.5 -133t-16.5 -148z" />
<glyph unicode="r" horiz-adv-x="681" d="M154 1028h127l6 -151h4q29 78 91 128t140 54q20 1 41 1h21q31 -1 61 -3v-119q-18 2 -37.5 5t-38.5 3q-137 0 -207.5 -90t-74.5 -238v-618h-123v797q1 20 1 39q0 40 -3 79q-4 60 -8 113z" />
<glyph unicode="s" horiz-adv-x="1024" d="M94 281h133q4 -57 30 -95.5t64.5 -62t88 -32.5t102.5 -9q49 0 97 12t86 37t61.5 63.5t23.5 92.5q0 55 -27.5 90t-73.5 56.5t-104.5 34.5t-119.5 28q-61 14 -120 32.5t-105 49t-73.5 76.5t-27.5 118q0 80 34 134.5t87 88t120.5 49t135.5 15.5q74 0 138.5 -14.5t115.5 -47 t82.5 -87t38.5 -136.5h-133q-4 49 -27 82t-57.5 52.5t-78.5 28.5t-91 9q-43 0 -85 -9t-74 -28.5t-52.5 -51.5t-20.5 -77q0 -57 36 -86.5t98.5 -50t150.5 -41t192 -57.5q80 -29 127 -92.5t47 -147.5q0 -86 -36.5 -149.5t-97 -105.5t-138.5 -61.5t-160 -19.5q-68 0 -135 16.5 t-122.5 53.5t-91.5 96.5t-38 145.5z" />
<glyph unicode="t" horiz-adv-x="681" d="M47 915v113h205v219l123 53v-272h233v-113h-233v-688q-4 -145 141 -145q29 0 55.5 2t51.5 10v-106q-29 -8 -62 -13.5t-63 -5.5q-98 0 -148.5 28t-72 73t-23.5 98t-2 106v641h-205z" />
<glyph unicode="u" d="M164 385v643h123v-663q0 -135 71.5 -209t198.5 -74q76 0 131 29.5t92 79t54.5 113t17.5 132.5v592h123v-797q0 -59 3 -118.5t7 -112.5h-127l-6 152l-4 4q-53 -96 -137 -141.5t-185 -45.5q-84 0 -143 22.5t-99 58.5t-64.5 82t-37 92t-15.5 89t-3 72z" />
<glyph unicode="v" horiz-adv-x="1024" d="M29 1028h135l354 -858l342 858h135l-407 -1028h-139z" />
<glyph unicode="w" horiz-adv-x="1705" d="M33 1028h135l307 -866h4l312 866h145l303 -858h4l297 858h135l-383 -1028h-116l-316 887h-4l-321 -887h-125z" />
<glyph unicode="x" horiz-adv-x="1024" d="M35 0l4 4l393 522l-379 502h164l301 -414l309 414h129l-368 -498l401 -530h-162l-329 446l-324 -446h-139z" />
<glyph unicode="y" horiz-adv-x="1024" d="M16 1028h150l346 -860l344 860h133l-567 -1421h-135l155 393z" />
<glyph unicode="z" horiz-adv-x="909" d="M82 0v113l600 802h-600v113h745v-113l-596 -802h596v-113h-745z" />
<glyph unicode="{" horiz-adv-x="569" d="M78 582v112q47 6 76.5 26.5t45 55.5t20.5 81t5 104v294q0 51 16.5 91t43 69t58.5 44.5t63 19.5h102v-103h-68q-41 -10 -61.5 -46t-20.5 -107v-293q0 -74 -18 -126t-42 -87t-45.5 -53.5t-27.5 -24.5q6 -4 27.5 -22.5t45.5 -53.5t42 -87t18 -126v-291q0 -72 20.5 -107.5 t61.5 -45.5h68v-103h-102q-31 2 -63 18.5t-58.5 45.5t-43 68.5t-16.5 91.5v292q0 55 -5 101.5t-20.5 80.5t-45 54.5t-76.5 26.5z" />
<glyph unicode="|" horiz-adv-x="454" d="M166 -512v2048h123v-2048h-123z" />
<glyph unicode="}" horiz-adv-x="569" d="M61 -94h68q41 10 61.5 46t20.5 107v293q0 74 18.5 126t42 87t45 53.5t27.5 24.5q-6 4 -27.5 22.5t-45 53.5t-42 87t-18.5 126v291q0 72 -20.5 107.5t-61.5 45.5h-68v103h103q31 -4 62.5 -19.5t58 -44.5t43 -68.5t16.5 -91.5v-292q0 -57 5 -103.5t20.5 -80.5t45 -54 t77.5 -27v-112q-47 -6 -77 -26.5t-45.5 -54.5t-20.5 -81t-5 -102v-295q0 -51 -16.5 -91t-43 -69t-58 -45.5t-62.5 -18.5h-103v103z" />
<glyph unicode="~" horiz-adv-x="1351" d="M164 442q23 33 50.5 70t62 68.5t77.5 52t99 20.5q55 0 117.5 -22.5t121.5 -50.5q61 -29 115.5 -51.5t95.5 -22.5q35 0 65.5 17.5t56.5 44t46.5 57t34.5 59.5l82 -70q-23 -41 -50.5 -80.5t-63.5 -71.5t-79 -51.5t-94 -19.5q-29 0 -65.5 9.5t-74.5 22.5t-74 28.5t-62 25.5 q-41 16 -84 40t-88 24q-41 0 -74 -19.5t-59.5 -48.5t-48 -62.5t-40.5 -64.5z" />
<glyph unicode="&#xa1;" horiz-adv-x="796" d="M315 -369l27 1129h115l26 -1129h-168zM317 934v176h164v-176h-164z" />
<glyph unicode="&#xa2;" d="M143 514q0 104 29 202.5t86 174.5t143 122t201 46q39 0 70 -6l71 256h91l-78 -275q102 -35 167.5 -116.5t71.5 -204.5h-133q-8 160 -137 209l-229 -824q43 -16 86 -16q121 0 196.5 66.5t83.5 173.5h133q-49 -352 -401 -353q-74 0 -129 19l-74 -260h-92l84 295 q-61 33 -106.5 85t-75 116.5t-44 138t-14.5 151.5zM276 516q0 -117 37 -216t105 -155l223 797q-16 2 -29.5 3t-29.5 1q-72 0 -128.5 -34.5t-95.5 -93t-60.5 -136.5t-21.5 -166z" />
<glyph unicode="&#xa3;" d="M94 762v123h154q-6 113 8 214t62.5 179t139.5 124t238 46q78 0 146.5 -19.5t121 -56.5t83 -92t32.5 -125h-143q-4 80 -76 125t-180 45q-80 0 -137.5 -27.5t-93 -74.5t-53 -113t-17.5 -139v-86h332v-123h-332v-639h655v-123h-911v123h123v639h-152z" />
<glyph unicode="&#xa4;" d="M55 614q0 92 22.5 164t76.5 146l-88 88l106 108l90 -88q70 53 150 77t166 24t157.5 -27t141.5 -74l90 88l106 -108l-88 -88q53 -76 75.5 -151t22.5 -169q0 -86 -25.5 -153.5t-72.5 -139.5l88 -86l-106 -108l-90 88q-139 -102 -318 -103q-86 0 -157.5 28t-139.5 75 l-90 -88l-106 108l88 86q-49 72 -74 143.5t-25 159.5zM199 614q-2 -74 27.5 -141t79.5 -117.5t118 -80t141 -29.5q76 0 144.5 28.5t120 80t81 120t29.5 146.5q0 74 -28.5 140t-78 117.5t-116 82t-139.5 28.5q-80 2 -150 -26.5t-121 -80t-80.5 -120t-27.5 -148.5z" />
<glyph unicode="&#xa5;" d="M2 1417h170l412 -653l409 653h144l-496 -770h408v-123h-410v-123h410v-122h-410v-279h-133v279h-416v122h416v123h-416v123h412z" />
<glyph unicode="&#xa6;" horiz-adv-x="454" d="M166 358h123v-716h-123v716zM166 666v716h123v-716h-123z" />
<glyph unicode="&#xa7;" d="M227 735q0 45 20.5 84t52.5 70t71 54.5t75 39.5q-39 20 -73.5 44t-61 53.5t-42 66.5t-15.5 84q0 78 31.5 131t83 86t116 47t129.5 14q53 0 107.5 -12t107.5 -27v-112q-18 8 -44.5 15t-55.5 12.5t-56.5 8.5t-45.5 3q-39 0 -81 -7.5t-78 -25.5t-58.5 -49t-22.5 -78 q0 -53 38 -89t94 -62.5t123 -51t123 -56.5t94 -75t38 -108q0 -45 -19.5 -84t-51 -70t-69.5 -55.5t-75 -40.5q45 -18 87 -41t72.5 -53.5t49 -71.5t18.5 -94q0 -84 -33.5 -143.5t-89 -97.5t-126 -56.5t-144.5 -18.5q-66 0 -134.5 11.5t-129.5 33.5v117q63 -27 123.5 -38 t130.5 -11q47 0 95 10t87 34t63.5 62.5t24.5 94.5q0 55 -41 87.5t-101.5 56.5t-132 45.5t-132 53t-101.5 80.5t-41 129zM360 748q0 -37 23 -64t54.5 -47.5t67.5 -33.5t62 -25q31 16 65 33.5t63.5 39t49 50t19.5 69.5t-25.5 66.5t-62.5 44t-77 33t-67 30.5l-61 -37 q-31 -18 -55.5 -39.5t-40 -50t-15.5 -69.5z" />
<glyph unicode="&#xa8;" horiz-adv-x="569" d="M31 1268v180h151v-180h-151zM387 1268v180h152v-180h-152z" />
<glyph unicode="&#xa9;" horiz-adv-x="1638" d="M49 741q0 158 60.5 298.5t166 245t246 164.5t299.5 60q160 0 299.5 -60t243.5 -164.5t164.5 -245t60.5 -298.5q0 -160 -60.5 -300t-164.5 -245.5t-243.5 -166t-299.5 -60.5t-300 60.5t-245.5 166t-166 245.5t-60.5 300zM172 741q0 -141 48 -261t135 -206t206 -134 t260 -48t259 48t204 134t134 206t48 261t-48 259t-134 204t-203.5 134t-259.5 48q-141 0 -260 -48t-206 -134t-135 -204t-48 -259zM430 748q0 94 28.5 175t83 140t132.5 92t176 33q139 0 239.5 -75t120.5 -216h-112q-16 82 -86 135t-160 53q-76 0 -132 -27.5t-93 -73.5 t-55.5 -107.5t-18.5 -126.5q0 -63 19.5 -125t57.5 -111t95 -78.5t131 -29.5q45 0 86 14t74 40.5t54.5 62.5t27.5 79h112q-6 -70 -37.5 -125t-80 -94t-109.5 -59.5t-127 -20.5q-96 0 -175 34t-134 94.5t-86 141.5t-31 175z" />
<glyph unicode="&#xaa;" horiz-adv-x="614" d="M47 1047q0 63 38 109t97 69q33 12 71 17t77 7t75.5 2t69.5 2v56q-6 76 -43 97t-106 21q-55 0 -99.5 -14t-54.5 -78h-94q14 96 83.5 135t166.5 39q111 0 175 -48t62 -154v-338q0 -25 3 -48.5t5 -46.5h-94l-6 82h-4q-23 -39 -77 -69.5t-122 -30.5q-92 0 -157.5 49.5 t-65.5 141.5zM150 1047q0 -63 36.5 -86t98.5 -23q61 0 100 20.5t60.5 54.5t28.5 75.5t5 87.5h-4v-5q-39 -2 -95 -2t-107.5 -9t-87 -34.5t-35.5 -78.5z" />
<glyph unicode="&#xab;" d="M209 547l217 399h104l-190 -399l188 -400h-102zM578 547l217 399h104l-190 -399l188 -400h-102z" />
<glyph unicode="&#xac;" horiz-adv-x="1351" d="M164 651v123h1024v-545h-123v422h-901z" />
<glyph unicode="&#xad;" horiz-adv-x="569" d="M27 485v123h516v-123h-516z" />
<glyph unicode="&#xae;" horiz-adv-x="1638" d="M49 741q0 158 60.5 298.5t166 245t246 164.5t299.5 60q160 0 299.5 -60t243.5 -164.5t164.5 -245t60.5 -298.5q0 -160 -60.5 -300t-164.5 -245.5t-243.5 -166t-299.5 -60.5t-300 60.5t-245.5 166t-166 245.5t-60.5 300zM172 741q0 -141 48 -261t135 -206t206 -134 t260 -48t259 48t204 134t134 206t48 261t-48 259t-134 204t-203.5 134t-259.5 48q-141 0 -260 -48t-206 -134t-135 -204t-48 -259zM532 305v881h379q172 0 240 -62.5t68 -181.5q0 -63 -20.5 -108.5t-57.5 -74t-87 -44t-108 -19.5l262 -391h-127l-247 391h-189v-391h-113z M645 799h156q45 0 97 -1t96 11t73 43t29 92q0 45 -17.5 72.5t-47.5 43t-67.5 19.5t-76.5 4h-242v-284z" />
<glyph unicode="&#xaf;" horiz-adv-x="569" d="M35 1325v123h502v-123h-502z" />
<glyph unicode="&#xb0;" horiz-adv-x="819" d="M102 1141q0 63 24 118.5t65.5 97.5t98 66.5t120.5 24.5q63 0 118.5 -24.5t97.5 -66.5t66.5 -97.5t24.5 -118.5t-24.5 -119.5t-66.5 -97.5t-97.5 -65.5t-118.5 -24.5t-120 24.5t-97.5 65.5t-65.5 97.5t-25 119.5zM195 1141q0 -94 60 -154.5t155 -60.5q92 0 153.5 60.5 t61.5 154.5q0 92 -61.5 153.5t-155.5 61.5q-47 0 -86 -16.5t-68 -45t-44 -68.5t-15 -85z" />
<glyph unicode="&#xb1;" horiz-adv-x="1351" d="M164 0v123h1024v-123h-1024zM164 553v123h450v352h123v-352h451v-123h-451v-348h-123v348h-450z" />
<glyph unicode="&#xb2;" horiz-adv-x="681" d="M68 580v84q29 25 74.5 65.5t96 89.5t100.5 104.5t91 108.5t66.5 103.5t25.5 87.5q0 57 -46 92t-120 35q-84 0 -133 -44t-49 -102h-98q0 57 21.5 102.5t59.5 77t90 48t111 16.5q55 0 105.5 -13.5t87.5 -41t59.5 -68.5t22.5 -96q0 -74 -49 -155t-116 -156.5t-134.5 -138 t-102.5 -101.5h414v-98h-577z" />
<glyph unicode="&#xb3;" horiz-adv-x="681" d="M43 807h111q2 -61 56 -101t134 -40q92 0 149.5 39.5t57.5 113.5q0 49 -21.5 82t-57.5 51.5t-81 23.5t-92 -1v98q45 -4 87 1t76 23.5t54.5 49.5t20.5 76q0 55 -52.5 91t-134.5 36q-88 0 -131 -36t-53 -91h-111q0 53 23.5 95t63.5 70.5t91.5 44t104.5 15.5 q57 0 113.5 -13.5t99.5 -41t69.5 -70.5t26.5 -104q0 -78 -55 -127.5t-133 -65.5v-4q88 -16 145.5 -71.5t57.5 -141.5q0 -59 -28 -104.5t-73 -76t-101.5 -46t-113.5 -15.5q-61 0 -115.5 14.5t-95.5 44t-65.5 75t-26.5 106.5z" />
<glyph unicode="&#xb4;" horiz-adv-x="569" d="M178 1155l187 293h163l-260 -293h-90z" />
<glyph unicode="&#xb5;" d="M164 -393v1421h123v-663q0 -135 71.5 -209t198.5 -74q76 0 131 29.5t92 79t54.5 113t17.5 132.5v592h123v-797q0 -59 3 -118.5t7 -112.5h-127l-6 152l-4 4q-53 -96 -137 -141.5t-185 -45.5q-59 0 -119.5 14.5t-119.5 36.5v-413h-123z" />
<glyph unicode="&#xb6;" horiz-adv-x="1331" d="M135 1077q0 195 120 298.5t337 103.5h444v-1778h-133v1655h-241v-1655h-134v987q-78 0 -149.5 31t-125.5 84t-86 123.5t-32 150.5z" />
<glyph unicode="&#xb7;" horiz-adv-x="569" d="M203 426v176h164v-176h-164z" />
<glyph unicode="&#xb8;" horiz-adv-x="569" d="M57 -330l15 58q45 -16 90 -29.5t92 -22.5q14 -2 44 5.5t42 17.5q16 16 20.5 29.5t4.5 35.5q0 43 -32 58.5t-67 15.5q-16 0 -33.5 -2t-33.5 -4l57 178h47l-31 -112q39 0 76 -4.5t65.5 -18.5t47 -42t18.5 -73q0 -37 -18.5 -62.5t-46 -41.5t-61.5 -23.5t-64 -7.5 q-39 0 -66.5 3t-52.5 9.5t-50.5 14.5t-62.5 18z" />
<glyph unicode="&#xb9;" horiz-adv-x="681" d="M152 1192v92q59 23 113 57.5t100 75.5h100v-837h-105v739q-47 -41 -99 -71.5t-109 -55.5z" />
<glyph unicode="&#xba;" horiz-adv-x="684" d="M31 1184q0 61 18.5 119.5t57 104.5t97 73.5t138.5 27.5t138.5 -27.5t97 -73.5t57 -104.5t18.5 -119.5t-18.5 -120.5t-57 -106t-97 -74t-138.5 -27.5t-138.5 27.5t-97 74t-57 106t-18.5 120.5zM133 1184q0 -43 12.5 -87t38 -79t64.5 -57.5t94 -22.5q53 0 93 22.5 t65.5 57.5t38 79t12.5 87t-12.5 86t-38 77.5t-65.5 57t-93 22.5q-55 0 -94 -22.5t-64.5 -57t-38 -77.5t-12.5 -86z" />
<glyph unicode="&#xbb;" d="M240 147l190 400l-188 399h102l217 -399l-217 -400h-104zM608 147l191 400l-189 399h103l217 -399l-217 -400h-105z" />
<glyph unicode="&#xbc;" horiz-adv-x="1708" d="M217 1192v92q59 23 113.5 57.5t99.5 75.5h100v-837h-104v739q-47 -41 -99.5 -71.5t-109.5 -55.5zM373 0l854 1448h108l-850 -1448h-112zM848 199v63l412 588h126v-553h130v-98h-130v-199h-104v199h-434zM991 297h291v436h-4z" />
<glyph unicode="&#xbd;" horiz-adv-x="1708" d="M217 1192v92q59 23 113.5 57.5t99.5 75.5h100v-837h-104v739q-47 -41 -99.5 -71.5t-109.5 -55.5zM373 0l854 1448h108l-850 -1448h-112zM1030 0v84q29 25 75 65.5t96 90t101.5 104.5t91.5 108.5t65.5 102.5t25.5 88q0 57 -46 92t-120 35q-84 0 -133 -44t-49 -101h-99 q0 57 21.5 102t59.5 77t90.5 48t111.5 16q55 0 105.5 -13t87 -41t59 -68.5t22.5 -96.5q0 -74 -49 -154.5t-115.5 -156.5t-134 -138.5t-102.5 -101.5h414v-98h-578z" />
<glyph unicode="&#xbe;" horiz-adv-x="1708" d="M43 807h111q2 -61 56 -101t134 -40q92 0 149.5 39.5t57.5 113.5q0 49 -21.5 82t-57.5 51.5t-81 23.5t-92 -1v98q45 -4 87 1t76 23.5t54.5 49.5t20.5 76q0 55 -52.5 91t-134.5 36q-88 0 -131 -36t-53 -91h-111q0 53 23.5 95t63.5 70.5t91.5 44t104.5 15.5 q57 0 113.5 -13.5t99.5 -41t69.5 -70.5t26.5 -104q0 -78 -55 -127.5t-133 -65.5v-4q88 -16 145.5 -71.5t57.5 -141.5q0 -59 -28 -104.5t-73 -76t-101.5 -46t-113.5 -15.5q-61 0 -115.5 14.5t-95.5 44t-65.5 75t-26.5 106.5zM373 0l854 1448h108l-850 -1448h-112zM848 199v63 l412 588h126v-553h130v-98h-130v-199h-104v199h-434zM991 297h291v436h-4z" />
<glyph unicode="&#xbf;" horiz-adv-x="1024" d="M152 -27q0 63 16 114.5t46 95.5t67.5 84t80.5 81q55 57 91 91t57.5 60.5t29 54.5t3.5 73v143h123v-221q-2 -49 -31 -92t-71 -85t-91 -85t-91 -90t-69.5 -101.5t-27.5 -118.5q0 -72 28.5 -119.5t74.5 -76.5t105.5 -40t122.5 -11q49 0 97.5 8t95.5 22v-125 q-55 -16 -111.5 -22t-113.5 -6q-86 0 -165 22.5t-138.5 67.5t-94 113.5t-34.5 162.5zM522 934v176h164v-176h-164z" />
<glyph unicode="&#xc0;" horiz-adv-x="1366" d="M18 0l586 1479h156l590 -1479h-146l-157 399h-736l-155 -399h-138zM354 522h645l-319 834zM440 1898h164l187 -292h-91z" />
<glyph unicode="&#xc1;" horiz-adv-x="1366" d="M18 0l586 1479h156l590 -1479h-146l-157 399h-736l-155 -399h-138zM354 522h645l-319 834zM578 1606l186 292h164l-260 -292h-90z" />
<glyph unicode="&#xc2;" horiz-adv-x="1366" d="M18 0l586 1479h156l590 -1479h-146l-157 399h-736l-155 -399h-138zM354 522h645l-319 834zM406 1602l204 296h150l203 -296h-97l-182 217l-184 -217h-94z" />
<glyph unicode="&#xc3;" horiz-adv-x="1366" d="M18 0l586 1479h156l590 -1479h-146l-157 399h-736l-155 -399h-138zM354 522h645l-319 834zM403 1683q18 84 75 131.5t147 32.5q14 -2 36.5 -8t45.5 -14l45 -13q23 -6 34 -6q35 0 63 17.5t40 50.5h78q-16 -70 -62.5 -122t-124.5 -52q-23 0 -45 6t-47 16q-23 8 -50.5 14.5 t-59.5 6.5q-31 0 -60 -14.5t-37 -45.5h-78z" />
<glyph unicode="&#xc4;" horiz-adv-x="1366" d="M18 0l586 1479h156l590 -1479h-146l-157 399h-736l-155 -399h-138zM354 522h645l-319 834zM430 1718v180h152v-180h-152zM786 1718v180h152v-180h-152z" />
<glyph unicode="&#xc5;" horiz-adv-x="1366" d="M18 0l586 1479h156l590 -1479h-146l-157 399h-736l-155 -399h-138zM354 522h645l-319 834zM504 1780q0 37 14 69.5t39 57t57.5 39t69.5 14.5t69.5 -14.5t57.5 -39t39 -57t14 -69.5t-14 -70t-39 -57.5t-57.5 -39t-69.5 -14.5t-69.5 14.5t-57.5 39t-39 57.5t-14 70z M571 1780q0 -41 35 -77t78 -36q41 0 77 36t36 77q0 43 -35 77.5t-78 34.5t-78 -33.5t-35 -78.5z" />
<glyph unicode="&#xc6;" horiz-adv-x="2048" d="M16 0l856 1479h1022v-123h-796l88 -531h672v-123h-654l96 -579h613v-123h-729l-70 401h-717l-233 -401h-148zM467 524h631l-142 832h-4z" />
<glyph unicode="&#xc7;" horiz-adv-x="1366" d="M125 739q0 152 37 291t114.5 245.5t197.5 170t288 63.5q90 0 175 -21.5t152.5 -67.5t111.5 -116.5t52 -170.5h-143q-10 68 -42 115.5t-79 78.5t-105.5 45t-121.5 14q-141 0 -236.5 -58t-153 -151.5t-81 -209t-23.5 -228.5q0 -115 23.5 -229.5t81 -207.5t153 -151.5 t236.5 -58.5q61 0 120.5 15.5t108.5 48t85 83t50 119.5h144q-16 -92 -64.5 -164.5t-117 -123t-153.5 -76t-173 -25.5q-14 0 -19 2l-20 -73q39 0 76 -4.5t65.5 -18.5t47 -42t18.5 -73q0 -37 -18.5 -62.5t-46 -41.5t-61.5 -23.5t-65 -7.5q-39 0 -66.5 3t-52 9.5t-50 14.5 t-62.5 18l14 58q45 -16 90 -29.5t93 -22.5q14 -2 43.5 5.5t42.5 17.5q16 16 20 29.5t4 35.5q0 43 -31.5 58.5t-66.5 15.5q-16 0 -33.5 -2t-34.5 -4l47 143q-152 12 -259 79t-177 170.5t-102.5 236.5t-32.5 278z" />
<glyph unicode="&#xc8;" horiz-adv-x="1251" d="M209 0v1479h878v-123h-745v-531h717v-123h-717v-579h776v-123h-909zM383 1898h164l186 -292h-90z" />
<glyph unicode="&#xc9;" horiz-adv-x="1251" d="M209 0v1479h878v-123h-745v-531h717v-123h-717v-579h776v-123h-909zM520 1606l187 292h163l-260 -292h-90z" />
<glyph unicode="&#xca;" horiz-adv-x="1251" d="M209 0v1479h878v-123h-745v-531h717v-123h-717v-579h776v-123h-909zM348 1602l205 296h149l203 -296h-96l-182 217l-185 -217h-94z" />
<glyph unicode="&#xcb;" horiz-adv-x="1251" d="M209 0v1479h878v-123h-745v-531h717v-123h-717v-579h776v-123h-909zM373 1718v180h151v-180h-151zM729 1718v180h152v-180h-152z" />
<glyph unicode="&#xcc;" horiz-adv-x="569" d="M41 1898h164l186 -292h-90zM219 0v1485h133v-1485h-133z" />
<glyph unicode="&#xcd;" horiz-adv-x="569" d="M178 1606l187 292h163l-260 -292h-90zM219 0v1485h133v-1485h-133z" />
<glyph unicode="&#xce;" horiz-adv-x="569" d="M6 1602l205 296h149l203 -296h-96l-182 217l-185 -217h-94zM219 0v1485h133v-1485h-133z" />
<glyph unicode="&#xcf;" horiz-adv-x="569" d="M31 1718v180h151v-180h-151zM219 0v1485h133v-1485h-133zM387 1718v180h152v-180h-152z" />
<glyph unicode="&#xd0;" horiz-adv-x="1478" d="M47 768v92h139v619h400q367 0 564.5 -185.5t197.5 -554.5t-198 -554t-564 -185h-400v768h-139zM319 123h299q156 0 267.5 44t182.5 125t103.5 194.5t32.5 252.5q0 164 -46 283t-134 194.5t-213 109.5t-283 30h-209v-496h443v-92h-443v-645z" />
<glyph unicode="&#xd1;" horiz-adv-x="1478" d="M188 0v1479h152l815 -1301h4v1301h133v-1479h-168l-798 1278h-4v-1278h-134zM459 1683q18 84 74.5 131.5t146.5 32.5q14 -2 36.5 -8t45.5 -14l45 -13q23 -6 35 -6q35 0 62.5 17.5t39.5 50.5h78q-16 -70 -62.5 -122t-123.5 -52q-23 0 -45.5 6t-47.5 16q-23 8 -50 14.5 t-60 6.5q-31 0 -59.5 -14.5t-36.5 -45.5h-78z" />
<glyph unicode="&#xd2;" horiz-adv-x="1593" d="M137 739q0 172 43 314.5t127 244t207 156.5t283 55t282.5 -55t206.5 -156.5t127 -244t43 -314.5t-43 -314t-127 -243.5t-207 -157t-282 -55.5q-160 0 -283 55.5t-207 157t-127 243.5t-43 314zM281 739q0 -121 28.5 -237.5t91 -207.5t159.5 -146.5t237 -55.5 q137 0 235 55.5t160.5 146.5t91.5 207.5t29 237.5t-29 238t-91.5 208t-160.5 146t-235 55q-139 0 -236.5 -55t-160 -146t-91 -208t-28.5 -238zM553 1898h164l186 -292h-90z" />
<glyph unicode="&#xd3;" horiz-adv-x="1593" d="M137 739q0 172 43 314.5t127 244t207 156.5t283 55t282.5 -55t206.5 -156.5t127 -244t43 -314.5t-43 -314t-127 -243.5t-207 -157t-282 -55.5q-160 0 -283 55.5t-207 157t-127 243.5t-43 314zM281 739q0 -121 28.5 -237.5t91 -207.5t159.5 -146.5t237 -55.5 q137 0 235 55.5t160.5 146.5t91.5 207.5t29 237.5t-29 238t-91.5 208t-160.5 146t-235 55q-139 0 -236.5 -55t-160 -146t-91 -208t-28.5 -238zM690 1606l187 292h163l-260 -292h-90z" />
<glyph unicode="&#xd4;" horiz-adv-x="1593" d="M137 739q0 172 43 314.5t127 244t207 156.5t283 55t282.5 -55t206.5 -156.5t127 -244t43 -314.5t-43 -314t-127 -243.5t-207 -157t-282 -55.5q-160 0 -283 55.5t-207 157t-127 243.5t-43 314zM281 739q0 -121 28.5 -237.5t91 -207.5t159.5 -146.5t237 -55.5 q137 0 235 55.5t160.5 146.5t91.5 207.5t29 237.5t-29 238t-91.5 208t-160.5 146t-235 55q-139 0 -236.5 -55t-160 -146t-91 -208t-28.5 -238zM518 1602l205 296h149l203 -296h-96l-182 217l-185 -217h-94z" />
<glyph unicode="&#xd5;" horiz-adv-x="1593" d="M137 739q0 172 43 314.5t127 244t207 156.5t283 55t282.5 -55t206.5 -156.5t127 -244t43 -314.5t-43 -314t-127 -243.5t-207 -157t-282 -55.5q-160 0 -283 55.5t-207 157t-127 243.5t-43 314zM281 739q0 -121 28.5 -237.5t91 -207.5t159.5 -146.5t237 -55.5 q137 0 235 55.5t160.5 146.5t91.5 207.5t29 237.5t-29 238t-91.5 208t-160.5 146t-235 55q-139 0 -236.5 -55t-160 -146t-91 -208t-28.5 -238zM516 1683q18 84 74.5 131.5t146.5 32.5q14 -2 37 -8t45 -14l45 -13q23 -6 35 -6q35 0 62.5 17.5t39.5 50.5h78q-16 -70 -62 -122 t-124 -52q-23 0 -45.5 6t-46.5 16q-23 8 -50.5 14.5t-60.5 6.5q-31 0 -59.5 -14.5t-36.5 -45.5h-78z" />
<glyph unicode="&#xd6;" horiz-adv-x="1593" d="M137 739q0 172 43 314.5t127 244t207 156.5t283 55t282.5 -55t206.5 -156.5t127 -244t43 -314.5t-43 -314t-127 -243.5t-207 -157t-282 -55.5q-160 0 -283 55.5t-207 157t-127 243.5t-43 314zM281 739q0 -121 28.5 -237.5t91 -207.5t159.5 -146.5t237 -55.5 q137 0 235 55.5t160.5 146.5t91.5 207.5t29 237.5t-29 238t-91.5 208t-160.5 146t-235 55q-139 0 -236.5 -55t-160 -146t-91 -208t-28.5 -238zM543 1718v180h151v-180h-151zM899 1718v180h152v-180h-152z" />
<glyph unicode="&#xd7;" horiz-adv-x="1351" d="M164 86l438 432l-438 432l76 78l438 -434l434 434l76 -78l-434 -432l434 -432l-76 -74l-434 430l-438 -430z" />
<glyph unicode="&#xd8;" horiz-adv-x="1593" d="M111 25l172 192q-72 98 -109 230.5t-37 291.5q0 172 43 314.5t127 244t207 156.5t283 55q150 0 266.5 -49t200.5 -139l168 188l55 -51l-174 -198q143 -199 143 -521q0 -172 -43 -314t-127 -243.5t-207 -157t-282 -55.5q-147 0 -262 47t-201 140l-164 -187zM281 739 q0 -113 23.5 -219t76.5 -192l788 886q-63 80 -155 126t-217 46q-139 0 -236.5 -55t-160 -146t-91 -208t-28.5 -238zM428 260q61 -78 152.5 -123t216.5 -45q137 0 235 55.5t160.5 146.5t91.5 207.5t29 237.5q0 111 -23.5 216.5t-75.5 193.5z" />
<glyph unicode="&#xd9;" horiz-adv-x="1478" d="M199 520v959h133v-957q8 -203 115.5 -316.5t291.5 -113.5t292 113.5t116 316.5v957h133v-959q-2 -119 -36 -220t-101.5 -175t-168 -115t-235.5 -41t-235.5 41t-168 115t-101 175t-35.5 220zM496 1898h163l187 -292h-90z" />
<glyph unicode="&#xda;" horiz-adv-x="1478" d="M199 520v959h133v-957q8 -203 115.5 -316.5t291.5 -113.5t292 113.5t116 316.5v957h133v-959q-2 -119 -36 -220t-101.5 -175t-168 -115t-235.5 -41t-235.5 41t-168 115t-101 175t-35.5 220zM633 1606l186 292h164l-260 -292h-90z" />
<glyph unicode="&#xdb;" horiz-adv-x="1478" d="M199 520v959h133v-957q8 -203 115.5 -316.5t291.5 -113.5t292 113.5t116 316.5v957h133v-959q-2 -119 -36 -220t-101.5 -175t-168 -115t-235.5 -41t-235.5 41t-168 115t-101 175t-35.5 220zM461 1602l205 296h149l203 -296h-96l-183 217l-184 -217h-94z" />
<glyph unicode="&#xdc;" horiz-adv-x="1478" d="M199 520v959h133v-957q8 -203 115.5 -316.5t291.5 -113.5t292 113.5t116 316.5v957h133v-959q-2 -119 -36 -220t-101.5 -175t-168 -115t-235.5 -41t-235.5 41t-168 115t-101 175t-35.5 220zM485 1718v180h152v-180h-152zM842 1718v180h151v-180h-151z" />
<glyph unicode="&#xdd;" horiz-adv-x="1251" d="M16 1479h170l453 -715l453 715h143l-541 -836v-643h-133v639zM520 1606l187 292h163l-260 -292h-90z" />
<glyph unicode="&#xde;" horiz-adv-x="1251" d="M205 0v1479h133v-318h293q102 0 201.5 -15.5t176 -61.5t124 -128t47.5 -213q0 -133 -47.5 -213.5t-124 -127t-176 -61.5t-201.5 -15h-293v-326h-133zM338 449h324q74 0 142 13t119.5 47t82 91t30.5 143t-30.5 143.5t-82 91.5t-120 47t-141.5 13h-324v-589z" />
<glyph unicode="&#xdf;" horiz-adv-x="1251" d="M178 0v1042q0 104 25.5 190.5t77 148t130 95t187.5 33.5q72 0 138.5 -20.5t117.5 -60t82 -99t31 -137.5q0 -61 -38 -112.5t-83 -95.5t-83 -84t-38 -77q0 -51 33 -86t82 -64.5t106.5 -59t106.5 -69.5t81.5 -94.5t32.5 -134.5q0 -82 -27.5 -146.5t-75.5 -108.5 t-112.5 -67.5t-136.5 -23.5q-147 0 -236.5 85t-95.5 235h133q-4 -94 51.5 -150.5t143.5 -56.5q102 0 162.5 55.5t60.5 171.5q0 59 -32.5 100.5t-82 74t-106.5 63.5t-106.5 66.5t-82 81.5t-32.5 114q0 66 38 115t83 92t83 85t38 95q0 51 -23 89t-57.5 62.5t-79.5 37t-90 12.5 q-84 0 -138.5 -37t-86 -94.5t-45 -128t-13.5 -138.5v-999h-123z" />
<glyph unicode="&#xe0;" horiz-adv-x="1024" d="M74 287q0 104 57 181t150 116q51 23 109.5 32t118.5 11t120.5 1t115.5 3v94q-10 127 -71.5 174t-171.5 47q-49 0 -92 -8t-77 -28.5t-55.5 -55.5t-27.5 -86h-131q12 80 46 135t84 90t115.5 50.5t139.5 15.5q170 0 268 -82t96 -258v-488q-2 -59 2 -118.5t9 -112.5h-127 l-4 152h-5l-6 -15q-16 -33 -49 -62.5t-76 -53t-94 -38t-102 -14.5q-72 0 -134.5 21.5t-108.5 62.5t-72.5 99.5t-26.5 134.5zM207 287q0 -104 68.5 -154.5t162.5 -50.5q100 0 163 38t96.5 99.5t43 140t4.5 158.5q-66 -2 -157.5 -2t-176.5 -18.5t-144.5 -66.5t-59.5 -144z M268 1448h164l186 -293h-90z" />
<glyph unicode="&#xe1;" horiz-adv-x="1024" d="M74 287q0 104 57 181t150 116q51 23 109.5 32t118.5 11t120.5 1t115.5 3v94q-10 127 -71.5 174t-171.5 47q-49 0 -92 -8t-77 -28.5t-55.5 -55.5t-27.5 -86h-131q12 80 46 135t84 90t115.5 50.5t139.5 15.5q170 0 268 -82t96 -258v-488q-2 -59 2 -118.5t9 -112.5h-127 l-4 152h-5l-6 -15q-16 -33 -49 -62.5t-76 -53t-94 -38t-102 -14.5q-72 0 -134.5 21.5t-108.5 62.5t-72.5 99.5t-26.5 134.5zM207 287q0 -104 68.5 -154.5t162.5 -50.5q100 0 163 38t96.5 99.5t43 140t4.5 158.5q-66 -2 -157.5 -2t-176.5 -18.5t-144.5 -66.5t-59.5 -144z M406 1155l186 293h164l-260 -293h-90z" />
<glyph unicode="&#xe2;" horiz-adv-x="1024" d="M74 287q0 104 57 181t150 116q51 23 109.5 32t118.5 11t120.5 1t115.5 3v94q-10 127 -71.5 174t-171.5 47q-49 0 -92 -8t-77 -28.5t-55.5 -55.5t-27.5 -86h-131q12 80 46 135t84 90t115.5 50.5t139.5 15.5q170 0 268 -82t96 -258v-488q-2 -59 2 -118.5t9 -112.5h-127 l-4 152h-5l-6 -15q-16 -33 -49 -62.5t-76 -53t-94 -38t-102 -14.5q-72 0 -134.5 21.5t-108.5 62.5t-72.5 99.5t-26.5 134.5zM207 287q0 -104 68.5 -154.5t162.5 -50.5q100 0 163 38t96.5 99.5t43 140t4.5 158.5q-66 -2 -157.5 -2t-176.5 -18.5t-144.5 -66.5t-59.5 -144z M233 1151l205 297h150l203 -297h-97l-182 217l-184 -217h-95z" />
<glyph unicode="&#xe3;" horiz-adv-x="1024" d="M74 287q0 104 57 181t150 116q51 23 109.5 32t118.5 11t120.5 1t115.5 3v94q-10 127 -71.5 174t-171.5 47q-49 0 -92 -8t-77 -28.5t-55.5 -55.5t-27.5 -86h-131q12 80 46 135t84 90t115.5 50.5t139.5 15.5q170 0 268 -82t96 -258v-488q-2 -59 2 -118.5t9 -112.5h-127 l-4 152h-5l-6 -15q-16 -33 -49 -62.5t-76 -53t-94 -38t-102 -14.5q-72 0 -134.5 21.5t-108.5 62.5t-72.5 99.5t-26.5 134.5zM207 287q0 -104 68.5 -154.5t162.5 -50.5q100 0 163 38t96.5 99.5t43 140t4.5 158.5q-66 -2 -157.5 -2t-176.5 -18.5t-144.5 -66.5t-59.5 -144z M231 1233q18 84 74.5 131t147.5 33q14 -2 36.5 -8.5t45.5 -14.5l45 -12q23 -6 34 -6q35 0 63 17.5t40 49.5h78q-16 -70 -62.5 -122t-124.5 -52q-23 0 -45 6.5t-47 16.5q-23 8 -50.5 14t-59.5 6q-31 0 -60 -14t-37 -45h-78z" />
<glyph unicode="&#xe4;" horiz-adv-x="1024" d="M74 287q0 104 57 181t150 116q51 23 109.5 32t118.5 11t120.5 1t115.5 3v94q-10 127 -71.5 174t-171.5 47q-49 0 -92 -8t-77 -28.5t-55.5 -55.5t-27.5 -86h-131q12 80 46 135t84 90t115.5 50.5t139.5 15.5q170 0 268 -82t96 -258v-488q-2 -59 2 -118.5t9 -112.5h-127 l-4 152h-5l-6 -15q-16 -33 -49 -62.5t-76 -53t-94 -38t-102 -14.5q-72 0 -134.5 21.5t-108.5 62.5t-72.5 99.5t-26.5 134.5zM207 287q0 -104 68.5 -154.5t162.5 -50.5q100 0 163 38t96.5 99.5t43 140t4.5 158.5q-66 -2 -157.5 -2t-176.5 -18.5t-144.5 -66.5t-59.5 -144z M258 1268v180h152v-180h-152zM614 1268v180h152v-180h-152z" />
<glyph unicode="&#xe5;" horiz-adv-x="1024" d="M74 287q0 104 57 181t150 116q51 23 109.5 32t118.5 11t120.5 1t115.5 3v94q-10 127 -71.5 174t-171.5 47q-49 0 -92 -8t-77 -28.5t-55.5 -55.5t-27.5 -86h-131q12 80 46 135t84 90t115.5 50.5t139.5 15.5q170 0 268 -82t96 -258v-488q-2 -59 2 -118.5t9 -112.5h-127 l-4 152h-5l-6 -15q-16 -33 -49 -62.5t-76 -53t-94 -38t-102 -14.5q-72 0 -134.5 21.5t-108.5 62.5t-72.5 99.5t-26.5 134.5zM207 287q0 -104 68.5 -154.5t162.5 -50.5q100 0 163 38t96.5 99.5t43 140t4.5 158.5q-66 -2 -157.5 -2t-176.5 -18.5t-144.5 -66.5t-59.5 -144z M332 1329q0 37 14 70t39 57.5t57.5 38.5t69.5 14t69.5 -14t57.5 -38.5t39 -57.5t14 -70t-14 -69.5t-39 -57t-57.5 -39t-69.5 -14.5t-69.5 14.5t-57.5 39t-39 57t-14 69.5zM399 1329q0 -41 35 -76.5t78 -35.5q41 0 77 35.5t36 76.5q0 43 -35 78t-78 35t-78 -34t-35 -79z" />
<glyph unicode="&#xe6;" horiz-adv-x="1705" d="M74 287q0 104 59.5 172.5t147.5 107.5q51 23 109.5 32t117.5 11t119.5 1t115.5 1v113q-10 127 -70.5 174t-170.5 47q-49 0 -92 -8t-77 -28.5t-55.5 -55.5t-27.5 -86h-131q12 80 46 135t84 90t115.5 50.5t139.5 15.5q51 -4 103 -18.5t97.5 -41t77 -65.5t43.5 -90h4 q25 55 60 94t77 65.5t88 40t91 15.5q121 0 206 -44t139 -120t78.5 -178.5t24.5 -216.5h-716q-2 -78 11 -153t46 -134t87 -95t134 -36q55 0 103.5 18.5t88 51t66.5 77.5t39 99h129q-47 -186 -157.5 -272.5t-266.5 -86.5q-111 10 -203 68.5t-139 175.5q-45 -121 -152.5 -177 t-246.5 -67q-72 0 -134.5 21.5t-108.5 62.5t-72.5 99.5t-26.5 134.5zM207 258q0 -45 22.5 -79t57.5 -55.5t75.5 -31.5t79.5 -10q98 0 159 35t92.5 93t41.5 133t8 155l-157 2q-72 0 -139.5 -5.5t-121 -29t-86 -71.5t-32.5 -136zM877 612h583q0 68 -16.5 128.5t-52 106.5 t-92 72.5t-138.5 26.5q-70 0 -123 -30.5t-90 -79t-55 -108t-16 -116.5z" />
<glyph unicode="&#xe7;" horiz-adv-x="1024" d="M94 514q0 104 29 202.5t86 174.5t143 122t201 46q80 0 149.5 -23.5t123 -67.5t85 -108.5t35.5 -146.5h-133q-8 119 -79.5 176t-201.5 57q-72 0 -128 -34.5t-95 -93t-60.5 -136.5t-21.5 -166t21.5 -167t60.5 -138t95.5 -94t127.5 -35q121 0 197 66.5t84 173.5h133 q-49 -346 -387 -351l-20 -73q39 0 75.5 -4.5t65.5 -18.5t47 -42t18 -73q0 -37 -18 -62.5t-46 -41.5t-61.5 -23.5t-64.5 -7.5q-39 0 -66.5 3t-52 9.5t-50.5 14.5t-62 18l14 58q45 -16 90 -29.5t92 -22.5q14 -2 44 5.5t42 17.5q16 16 20.5 29.5t4.5 35.5q0 43 -32 58.5 t-67 15.5q-16 0 -33.5 -2t-33.5 -4l45 139q-106 6 -185 54.5t-130.5 123t-76 170t-24.5 195.5z" />
<glyph unicode="&#xe8;" d="M102 514q0 104 29 202.5t86 174.5t143 122t201 46q129 0 218 -44t145.5 -122t81 -182.5t24.5 -225.5h-794q2 -82 22.5 -155.5t63.5 -129t109.5 -87t160.5 -31.5q55 0 103 18.5t88 51t67 77.5t39 99h129q-47 -186 -163 -272.5t-302 -86.5q-115 0 -200 46t-140 122 t-83 174.5t-28 202.5zM240 598h657q-6 74 -28.5 138.5t-63.5 110.5t-101.5 72.5t-140.5 26.5q-76 0 -133 -28.5t-97 -77.5t-63.5 -111.5t-29.5 -130.5zM326 1448h163l187 -293h-90z" />
<glyph unicode="&#xe9;" d="M102 514q0 104 29 202.5t86 174.5t143 122t201 46q129 0 218 -44t145.5 -122t81 -182.5t24.5 -225.5h-794q2 -82 22.5 -155.5t63.5 -129t109.5 -87t160.5 -31.5q55 0 103 18.5t88 51t67 77.5t39 99h129q-47 -186 -163 -272.5t-302 -86.5q-115 0 -200 46t-140 122 t-83 174.5t-28 202.5zM240 598h657q-6 74 -28.5 138.5t-63.5 110.5t-101.5 72.5t-140.5 26.5q-76 0 -133 -28.5t-97 -77.5t-63.5 -111.5t-29.5 -130.5zM463 1155l186 293h164l-260 -293h-90z" />
<glyph unicode="&#xea;" d="M102 514q0 104 29 202.5t86 174.5t143 122t201 46q129 0 218 -44t145.5 -122t81 -182.5t24.5 -225.5h-794q2 -82 22.5 -155.5t63.5 -129t109.5 -87t160.5 -31.5q55 0 103 18.5t88 51t67 77.5t39 99h129q-47 -186 -163 -272.5t-302 -86.5q-115 0 -200 46t-140 122 t-83 174.5t-28 202.5zM240 598h657q-6 74 -28.5 138.5t-63.5 110.5t-101.5 72.5t-140.5 26.5q-76 0 -133 -28.5t-97 -77.5t-63.5 -111.5t-29.5 -130.5zM291 1151l205 297h149l203 -297h-96l-183 217l-184 -217h-94z" />
<glyph unicode="&#xeb;" d="M102 514q0 104 29 202.5t86 174.5t143 122t201 46q129 0 218 -44t145.5 -122t81 -182.5t24.5 -225.5h-794q2 -82 22.5 -155.5t63.5 -129t109.5 -87t160.5 -31.5q55 0 103 18.5t88 51t67 77.5t39 99h129q-47 -186 -163 -272.5t-302 -86.5q-115 0 -200 46t-140 122 t-83 174.5t-28 202.5zM240 598h657q-6 74 -28.5 138.5t-63.5 110.5t-101.5 72.5t-140.5 26.5q-76 0 -133 -28.5t-97 -77.5t-63.5 -111.5t-29.5 -130.5zM315 1268v180h152v-180h-152zM672 1268v180h151v-180h-151z" />
<glyph unicode="&#xec;" horiz-adv-x="454" d="M-16 1448h163l187 -293h-90zM166 0v1028h123v-1028h-123z" />
<glyph unicode="&#xed;" horiz-adv-x="454" d="M121 1155l186 293h164l-260 -293h-90zM166 0v1028h123v-1028h-123z" />
<glyph unicode="&#xee;" horiz-adv-x="454" d="M-51 1151l205 297h149l203 -297h-96l-183 217l-184 -217h-94zM166 0v1028h123v-1028h-123z" />
<glyph unicode="&#xef;" horiz-adv-x="454" d="M-27 1268v180h152v-180h-152zM166 0v1028h123v-1028h-123zM330 1268v180h151v-180h-151z" />
<glyph unicode="&#xf0;" d="M90 485q0 96 28.5 189.5t86 166t144.5 118t204 45.5q88 0 151.5 -30t106.5 -71t68.5 -86t38.5 -78l4 4q-6 68 -27 146t-58.5 152.5t-98 144t-146.5 123.5l-191 -117l-59 59l170 105q-25 12 -44 20t-39.5 16.5t-46.5 16.5t-65 18l35 82q47 -10 81 -19t61.5 -19.5 t55.5 -22.5t62 -31l191 119l61 -57l-174 -109q49 -33 110.5 -90t117 -153.5t93.5 -237.5t38 -340q0 -270 -123 -425t-357 -155q-123 0 -213 45t-149.5 118t-88 165t-28.5 188zM223 485q0 -68 19.5 -140.5t60.5 -131.5t107.5 -98t158.5 -39t159 39t108 98t60 132t19 140 q0 68 -19 141.5t-60 133t-107.5 98.5t-159.5 39q-92 0 -158.5 -39t-107.5 -98.5t-60.5 -133t-19.5 -141.5z" />
<glyph unicode="&#xf1;" d="M154 1028h127l6 -151l4 -5q53 96 137 141.5t184 45.5q84 0 143.5 -22.5t99.5 -58.5t64.5 -82t37 -92t15.5 -89t3 -72v-643h-123v664q0 135 -71.5 208.5t-198.5 73.5q-76 0 -131.5 -29.5t-92 -79t-54 -112.5t-17.5 -133v-592h-123v797q0 59 -3 118.5t-7 112.5zM289 1233 q18 84 74.5 131t146.5 33q14 -2 36.5 -8.5t45.5 -14.5l45 -12q23 -6 35 -6q35 0 62.5 17.5t39.5 49.5h78q-16 -70 -62.5 -122t-123.5 -52q-23 0 -45.5 6.5t-47.5 16.5q-23 8 -50 14t-60 6q-31 0 -59.5 -14t-36.5 -45h-78z" />
<glyph unicode="&#xf2;" d="M90 514q0 100 28.5 198.5t88 175.5t149.5 124t213 47t213 -47t149.5 -124t88.5 -175.5t29 -198.5q0 -102 -29 -199.5t-88.5 -174.5t-149.5 -124t-213 -47t-213 47t-149.5 124t-88 174.5t-28.5 199.5zM223 514q0 -72 19.5 -148.5t60.5 -139t107.5 -103.5t158.5 -41t159 41 t108 103.5t60 139t19 148.5t-19 148.5t-60 139t-107.5 103.5t-159.5 41q-92 0 -158.5 -41t-107.5 -103.5t-60.5 -139t-19.5 -148.5zM326 1448h163l187 -293h-90z" />
<glyph unicode="&#xf3;" d="M90 514q0 100 28.5 198.5t88 175.5t149.5 124t213 47t213 -47t149.5 -124t88.5 -175.5t29 -198.5q0 -102 -29 -199.5t-88.5 -174.5t-149.5 -124t-213 -47t-213 47t-149.5 124t-88 174.5t-28.5 199.5zM223 514q0 -72 19.5 -148.5t60.5 -139t107.5 -103.5t158.5 -41t159 41 t108 103.5t60 139t19 148.5t-19 148.5t-60 139t-107.5 103.5t-159.5 41q-92 0 -158.5 -41t-107.5 -103.5t-60.5 -139t-19.5 -148.5zM463 1155l186 293h164l-260 -293h-90z" />
<glyph unicode="&#xf4;" d="M90 514q0 100 28.5 198.5t88 175.5t149.5 124t213 47t213 -47t149.5 -124t88.5 -175.5t29 -198.5q0 -102 -29 -199.5t-88.5 -174.5t-149.5 -124t-213 -47t-213 47t-149.5 124t-88 174.5t-28.5 199.5zM223 514q0 -72 19.5 -148.5t60.5 -139t107.5 -103.5t158.5 -41t159 41 t108 103.5t60 139t19 148.5t-19 148.5t-60 139t-107.5 103.5t-159.5 41q-92 0 -158.5 -41t-107.5 -103.5t-60.5 -139t-19.5 -148.5zM291 1151l205 297h149l203 -297h-96l-183 217l-184 -217h-94z" />
<glyph unicode="&#xf5;" d="M90 514q0 100 28.5 198.5t88 175.5t149.5 124t213 47t213 -47t149.5 -124t88.5 -175.5t29 -198.5q0 -102 -29 -199.5t-88.5 -174.5t-149.5 -124t-213 -47t-213 47t-149.5 124t-88 174.5t-28.5 199.5zM223 514q0 -72 19.5 -148.5t60.5 -139t107.5 -103.5t158.5 -41t159 41 t108 103.5t60 139t19 148.5t-19 148.5t-60 139t-107.5 103.5t-159.5 41q-92 0 -158.5 -41t-107.5 -103.5t-60.5 -139t-19.5 -148.5zM289 1233q18 84 74.5 131t146.5 33q14 -2 36.5 -8.5t45.5 -14.5l45 -12q23 -6 35 -6q35 0 62.5 17.5t39.5 49.5h78q-16 -70 -62.5 -122 t-123.5 -52q-23 0 -45.5 6.5t-47.5 16.5q-23 8 -50 14t-60 6q-31 0 -59.5 -14t-36.5 -45h-78z" />
<glyph unicode="&#xf6;" d="M90 514q0 100 28.5 198.5t88 175.5t149.5 124t213 47t213 -47t149.5 -124t88.5 -175.5t29 -198.5q0 -102 -29 -199.5t-88.5 -174.5t-149.5 -124t-213 -47t-213 47t-149.5 124t-88 174.5t-28.5 199.5zM223 514q0 -72 19.5 -148.5t60.5 -139t107.5 -103.5t158.5 -41t159 41 t108 103.5t60 139t19 148.5t-19 148.5t-60 139t-107.5 103.5t-159.5 41q-92 0 -158.5 -41t-107.5 -103.5t-60.5 -139t-19.5 -148.5zM315 1268v180h152v-180h-152zM672 1268v180h151v-180h-151z" />
<glyph unicode="&#xf7;" horiz-adv-x="1351" d="M164 453v122h1024v-122h-1024zM600 0v180h154v-180h-154zM600 848v180h154v-180h-154z" />
<glyph unicode="&#xf8;" d="M68 20l127 140q-53 76 -79 167t-26 187q0 100 28.5 198.5t88 175.5t149.5 124t213 47q106 0 187.5 -36t138.5 -95l121 131l49 -51l-123 -136q53 -76 80 -168t27 -190q0 -102 -29 -199.5t-88.5 -174.5t-149.5 -124t-213 -47q-109 0 -190.5 37t-138.5 96l-123 -133z M223 514q0 -61 14.5 -128t49.5 -126l522 574q-41 51 -100.5 81.5t-139.5 30.5q-92 0 -158.5 -41t-107.5 -103.5t-60.5 -139t-19.5 -148.5zM326 199q41 -51 100 -84t143 -33q92 0 159 41t108 103.5t60 139t19 148.5q0 66 -15 132.5t-50 125.5z" />
<glyph unicode="&#xf9;" d="M164 385v643h123v-663q0 -135 71.5 -209t198.5 -74q76 0 131 29.5t92 79t54.5 113t17.5 132.5v592h123v-797q0 -59 3 -118.5t7 -112.5h-127l-6 152l-4 4q-53 -96 -137 -141.5t-185 -45.5q-84 0 -143 22.5t-99 58.5t-64.5 82t-37 92t-15.5 89t-3 72zM326 1448h163 l187 -293h-90z" />
<glyph unicode="&#xfa;" d="M164 385v643h123v-663q0 -135 71.5 -209t198.5 -74q76 0 131 29.5t92 79t54.5 113t17.5 132.5v592h123v-797q0 -59 3 -118.5t7 -112.5h-127l-6 152l-4 4q-53 -96 -137 -141.5t-185 -45.5q-84 0 -143 22.5t-99 58.5t-64.5 82t-37 92t-15.5 89t-3 72zM463 1155l186 293h164 l-260 -293h-90z" />
<glyph unicode="&#xfb;" d="M164 385v643h123v-663q0 -135 71.5 -209t198.5 -74q76 0 131 29.5t92 79t54.5 113t17.5 132.5v592h123v-797q0 -59 3 -118.5t7 -112.5h-127l-6 152l-4 4q-53 -96 -137 -141.5t-185 -45.5q-84 0 -143 22.5t-99 58.5t-64.5 82t-37 92t-15.5 89t-3 72zM291 1151l205 297h149 l203 -297h-96l-183 217l-184 -217h-94z" />
<glyph unicode="&#xfc;" d="M164 385v643h123v-663q0 -135 71.5 -209t198.5 -74q76 0 131 29.5t92 79t54.5 113t17.5 132.5v592h123v-797q0 -59 3 -118.5t7 -112.5h-127l-6 152l-4 4q-53 -96 -137 -141.5t-185 -45.5q-84 0 -143 22.5t-99 58.5t-64.5 82t-37 92t-15.5 89t-3 72zM315 1268v180h152 v-180h-152zM672 1268v180h151v-180h-151z" />
<glyph unicode="&#xfd;" horiz-adv-x="1024" d="M16 1028h150l346 -860l344 860h133l-567 -1421h-135l155 393zM406 1155l186 293h164l-260 -293h-90z" />
<glyph unicode="&#xfe;" d="M143 -393v1872h123v-602l4 -5q53 90 151.5 138.5t201.5 48.5q115 0 194.5 -47t130.5 -124t73.5 -173.5t22.5 -196.5q0 -96 -22.5 -194.5t-72.5 -177t-129 -128t-191 -49.5q-113 0 -204 49.5t-155 141.5h-4v-553h-123zM266 539q0 -88 17.5 -170t57.5 -145.5t107.5 -102.5 t167.5 -39q88 0 145.5 44t90.5 110.5t46 145.5t13 150q0 74 -16 148t-53 133t-96.5 96t-147.5 37q-90 0 -152.5 -34.5t-102.5 -91t-58.5 -130t-18.5 -151.5z" />
<glyph unicode="&#xff;" horiz-adv-x="1024" d="M16 1028h150l346 -860l344 860h133l-567 -1421h-135l155 393zM258 1268v180h152v-180h-152zM614 1268v180h152v-180h-152z" />
<glyph unicode="&#x152;" horiz-adv-x="2048" d="M125 739q0 172 43 314.5t123 244t194.5 156.5t257.5 55q106 0 203.5 -32.5t190.5 -126.5v129h770v-123h-637v-531h608v-123h-608v-579h667v-123h-800v141h-9q-33 -45 -77.5 -76.5t-96 -53t-105.5 -32t-106 -10.5q-143 0 -257.5 55.5t-194.5 157t-123 243.5t-43 314z M268 739q0 -121 28 -237.5t86 -207.5t148.5 -146.5t212.5 -55.5q180 6 285 97.5t105 263.5v518q2 223 -99.5 319t-290.5 96q-123 0 -213 -55t-148 -146t-86 -208t-28 -238z" />
<glyph unicode="&#x153;" horiz-adv-x="1820" d="M90 514q0 100 28.5 198.5t88 175.5t149.5 124t213 47q125 0 220.5 -67.5t144.5 -188.5q20 63 57 111.5t83 81t97.5 48t100.5 15.5q121 0 206 -44t139 -122t78.5 -182.5t24.5 -225.5h-716q-2 -72 11 -144.5t46 -130.5t87 -94t134 -34q55 0 103.5 18.5t88 51t66.5 77.5 t39 99h129q-47 -186 -157.5 -272.5t-266.5 -86.5q-117 0 -215 62.5t-133 193.5h-4q-47 -129 -146.5 -192.5t-216.5 -63.5q-123 0 -213 47t-149.5 124t-88 174.5t-28.5 199.5zM223 514q0 -72 18.5 -148.5t58.5 -139t102.5 -103.5t148.5 -41q94 0 156.5 40t98.5 103.5t50 142 t14 156.5q0 72 -15 148t-52 137t-98.5 100t-153.5 37q-86 0 -148.5 -41t-102.5 -103.5t-58.5 -139t-18.5 -148.5zM1004 598h583q0 74 -16.5 137.5t-52 110.5t-92 73.5t-138.5 26.5q-70 0 -123 -30.5t-90 -81t-55 -113t-16 -123.5z" />
<glyph unicode="&#x178;" horiz-adv-x="1251" d="M16 1479h170l453 -715l453 715h143l-541 -836v-643h-133v639zM373 1718v180h151v-180h-151zM729 1718v180h152v-180h-152z" />
<glyph unicode="&#x2c6;" horiz-adv-x="569" d="M6 1151l205 297h149l203 -297h-96l-182 217l-185 -217h-94z" />
<glyph unicode="&#x2dc;" horiz-adv-x="569" d="M4 1233q18 84 74.5 131t146.5 33q14 -2 37 -8.5t45 -14.5l45 -12q23 -6 35 -6q35 0 62.5 17.5t39.5 49.5h78q-16 -70 -62 -122t-124 -52q-23 0 -45.5 6.5t-46.5 16.5q-23 8 -50.5 14t-60.5 6q-31 0 -59.5 -14t-36.5 -45h-78z" />
<glyph unicode="&#x2000;" horiz-adv-x="978" />
<glyph unicode="&#x2001;" horiz-adv-x="1959" />
<glyph unicode="&#x2002;" horiz-adv-x="978" />
<glyph unicode="&#x2003;" horiz-adv-x="1959" />
<glyph unicode="&#x2004;" horiz-adv-x="653" />
<glyph unicode="&#x2005;" horiz-adv-x="489" />
<glyph unicode="&#x2006;" horiz-adv-x="325" />
<glyph unicode="&#x2007;" horiz-adv-x="325" />
<glyph unicode="&#x2008;" horiz-adv-x="243" />
<glyph unicode="&#x2009;" horiz-adv-x="391" />
<glyph unicode="&#x200a;" horiz-adv-x="108" />
<glyph unicode="&#x2010;" horiz-adv-x="569" d="M27 485v123h516v-123h-516z" />
<glyph unicode="&#x2011;" horiz-adv-x="569" d="M27 485v123h516v-123h-516z" />
<glyph unicode="&#x2012;" horiz-adv-x="569" d="M27 485v123h516v-123h-516z" />
<glyph unicode="&#x2013;" horiz-adv-x="1024" d="M0 485v123h1024v-123h-1024z" />
<glyph unicode="&#x2014;" horiz-adv-x="2048" d="M0 485v123h2048v-123h-2048z" />
<glyph unicode="&#x2018;" horiz-adv-x="569" d="M150 1059l147 420h106l-88 -420h-165z" />
<glyph unicode="&#x2019;" horiz-adv-x="569" d="M166 1059l88 420h166l-148 -420h-106z" />
<glyph unicode="&#x201a;" horiz-adv-x="569" d="M166 -254l88 420h166l-148 -420h-106z" />
<glyph unicode="&#x201c;" d="M244 1059l147 420h107l-88 -420h-166zM621 1059l147 420h106l-88 -420h-165z" />
<glyph unicode="&#x201d;" d="M264 1059l88 420h166l-147 -420h-107zM641 1059l88 420h166l-147 -420h-107z" />
<glyph unicode="&#x201e;" d="M260 -254l88 420h166l-147 -420h-107zM637 -254l88 420h166l-148 -420h-106z" />
<glyph unicode="&#x2022;" horiz-adv-x="1024" d="M143 739q0 76 29 143.5t79 118t116.5 79t142.5 28.5t143.5 -28.5t118.5 -79t80 -118t29 -143.5t-29 -142.5t-80 -116.5t-118.5 -79.5t-143.5 -29.5t-142.5 29.5t-116.5 79.5t-79 116.5t-29 142.5z" />
<glyph unicode="&#x2026;" horiz-adv-x="2048" d="M260 0v176h164v-176h-164zM942 0v176h164v-176h-164zM1624 0v176h164v-176h-164z" />
<glyph unicode="&#x202f;" horiz-adv-x="391" />
<glyph unicode="&#x2039;" horiz-adv-x="569" d="M119 547l217 399h104l-190 -399l188 -400h-102z" />
<glyph unicode="&#x203a;" horiz-adv-x="569" d="M129 147l190 400l-188 399h102l218 -399l-218 -400h-104z" />
<glyph unicode="&#x205f;" horiz-adv-x="489" />
<glyph unicode="&#x20ac;" d="M55 563l35 115h90v31v35q0 17 2 36h-123l35 115h101q14 111 53 211t103.5 176t155.5 121t212 45q113 0 203 -40t157 -132l-55 -180q-37 119 -122 174t-185 55q-90 0 -156.5 -37t-112 -96t-72 -137t-38.5 -160h627l-35 -115h-604q-2 -18 -2 -36v-35v-31h573l-35 -115h-530 q10 -90 35.5 -175t70.5 -150.5t114 -105.5t165 -40q98 0 173 48t138 126v-170q-63 -63 -143 -95t-166 -32q-127 0 -220 47t-158 128t-102.5 189.5t-50.5 229.5h-133z" />
<glyph unicode="&#x2122;" horiz-adv-x="1925" d="M59 1397v82h656v-82h-271v-781h-112v781h-273zM868 616v863h203l246 -637h4l242 637h202v-863h-112v773h-4l-297 -773h-70l-297 773h-4v-773h-113z" />
<glyph unicode="&#xe000;" horiz-adv-x="1030" d="M0 1030h1030v-1030h-1030v1030z" />
<glyph unicode="&#xfb01;" d="M45 915v113h207v219q0 133 57.5 194.5t190.5 61.5q29 0 58.5 -8t57.5 -14v-99q-18 4 -37.5 6.5t-37.5 2.5q-63 0 -98 -15.5t-50.5 -45.5t-17.5 -73t0 -98v-131h233v-113h-233v-915h-123v915h-207zM821 1325v154h144v-154h-144zM831 0v1028h123v-1028h-123z" />
<glyph unicode="&#xfb02;" d="M49 915v113h207v219q0 133 57.5 194.5t190.5 61.5q29 0 58.5 -8t58.5 -14v-99q-18 4 -38 6.5t-38 2.5q-63 0 -98 -15.5t-50.5 -45.5t-17.5 -73t0 -98v-131h233v-113h-233v-915h-123v915h-207zM840 0v1479h123v-1479h-123z" />
<glyph unicode="&#xfb03;" horiz-adv-x="1818" d="M1520 1325v154h143v-154h-143zM1530 0v1028h123v-1028h-123zM727 915v113h207v219q0 133 57.5 194.5t190.5 61.5q29 0 58.5 -8t57.5 -14v-99q-18 4 -37.5 6.5t-37.5 2.5q-63 0 -98 -15.5t-50.5 -45.5t-17.5 -73q-1 -22 -1 -46t1 -52v-131h233v-113h-233v-915h-123v915 h-207zM45 915v113h207v219q0 133 57.5 194.5t190.5 61.5q29 0 58.5 -8t57.5 -14v-99q-18 4 -37.5 6.5t-37.5 2.5q-63 0 -98 -15.5t-50.5 -45.5t-17.5 -73q-1 -22 -1 -46t1 -52v-131h233v-113h-233v-915h-123v915h-207z" />
<glyph unicode="&#xfb04;" horiz-adv-x="1818" d="M1530 0v1479h123v-1479h-123zM727 915v113h207v219q0 133 57.5 194.5t190.5 61.5q29 0 58.5 -8t57.5 -14v-99q-18 4 -37.5 6.5t-37.5 2.5q-63 0 -98 -15.5t-50.5 -45.5t-17.5 -73q-1 -22 -1 -46t1 -52v-131h233v-113h-233v-915h-123v915h-207zM45 915v113h207v219 q0 133 57.5 194.5t190.5 61.5q29 0 58.5 -8t57.5 -14v-99q-18 4 -37.5 6.5t-37.5 2.5q-63 0 -98 -15.5t-50.5 -45.5t-17.5 -73q-1 -22 -1 -46t1 -52v-131h233v-113h-233v-915h-123v915h-207z" />
</font>
</defs>
</svg>
